%TF.GenerationSoftware,KiCad,Pcbnew,(6.0.4)*%
%TF.CreationDate,2022-12-15T09:54:16-05:00*%
%TF.ProjectId,HPcontroller,4850636f-6e74-4726-9f6c-6c65722e6b69,rev?*%
%TF.SameCoordinates,Original*%
%TF.FileFunction,Copper,L1,Top*%
%TF.FilePolarity,Positive*%
%FSLAX46Y46*%
G04 Gerber Fmt 4.6, Leading zero omitted, Abs format (unit mm)*
G04 Created by KiCad (PCBNEW (6.0.4)) date 2022-12-15 09:54:16*
%MOMM*%
%LPD*%
G01*
G04 APERTURE LIST*
G04 Aperture macros list*
%AMRoundRect*
0 Rectangle with rounded corners*
0 $1 Rounding radius*
0 $2 $3 $4 $5 $6 $7 $8 $9 X,Y pos of 4 corners*
0 Add a 4 corners polygon primitive as box body*
4,1,4,$2,$3,$4,$5,$6,$7,$8,$9,$2,$3,0*
0 Add four circle primitives for the rounded corners*
1,1,$1+$1,$2,$3*
1,1,$1+$1,$4,$5*
1,1,$1+$1,$6,$7*
1,1,$1+$1,$8,$9*
0 Add four rect primitives between the rounded corners*
20,1,$1+$1,$2,$3,$4,$5,0*
20,1,$1+$1,$4,$5,$6,$7,0*
20,1,$1+$1,$6,$7,$8,$9,0*
20,1,$1+$1,$8,$9,$2,$3,0*%
%AMFreePoly0*
4,1,22,0.500000,-0.750000,0.000000,-0.750000,0.000000,-0.745033,-0.079941,-0.743568,-0.215256,-0.701293,-0.333266,-0.622738,-0.424486,-0.514219,-0.481581,-0.384460,-0.499164,-0.250000,-0.500000,-0.250000,-0.500000,0.250000,-0.499164,0.250000,-0.499963,0.256109,-0.478152,0.396186,-0.417904,0.524511,-0.324060,0.630769,-0.204165,0.706417,-0.067858,0.745374,0.000000,0.744959,0.000000,0.750000,
0.500000,0.750000,0.500000,-0.750000,0.500000,-0.750000,$1*%
%AMFreePoly1*
4,1,20,0.000000,0.744959,0.073905,0.744508,0.209726,0.703889,0.328688,0.626782,0.421226,0.519385,0.479903,0.390333,0.500000,0.250000,0.500000,-0.250000,0.499851,-0.262216,0.476331,-0.402017,0.414519,-0.529596,0.319384,-0.634700,0.198574,-0.708877,0.061801,-0.746166,0.000000,-0.745033,0.000000,-0.750000,-0.500000,-0.750000,-0.500000,0.750000,0.000000,0.750000,0.000000,0.744959,
0.000000,0.744959,$1*%
G04 Aperture macros list end*
%TA.AperFunction,SMDPad,CuDef*%
%ADD10RoundRect,0.250000X-0.337500X-0.475000X0.337500X-0.475000X0.337500X0.475000X-0.337500X0.475000X0*%
%TD*%
%TA.AperFunction,SMDPad,CuDef*%
%ADD11RoundRect,0.250000X0.350000X0.450000X-0.350000X0.450000X-0.350000X-0.450000X0.350000X-0.450000X0*%
%TD*%
%TA.AperFunction,SMDPad,CuDef*%
%ADD12R,1.550000X1.300000*%
%TD*%
%TA.AperFunction,SMDPad,CuDef*%
%ADD13RoundRect,0.250000X0.450000X-0.350000X0.450000X0.350000X-0.450000X0.350000X-0.450000X-0.350000X0*%
%TD*%
%TA.AperFunction,SMDPad,CuDef*%
%ADD14RoundRect,0.237500X-0.287500X-0.237500X0.287500X-0.237500X0.287500X0.237500X-0.287500X0.237500X0*%
%TD*%
%TA.AperFunction,SMDPad,CuDef*%
%ADD15RoundRect,0.250000X-0.350000X-0.450000X0.350000X-0.450000X0.350000X0.450000X-0.350000X0.450000X0*%
%TD*%
%TA.AperFunction,SMDPad,CuDef*%
%ADD16RoundRect,0.150000X0.825000X0.150000X-0.825000X0.150000X-0.825000X-0.150000X0.825000X-0.150000X0*%
%TD*%
%TA.AperFunction,ComponentPad*%
%ADD17O,2.200000X3.500000*%
%TD*%
%TA.AperFunction,ComponentPad*%
%ADD18R,1.500000X2.500000*%
%TD*%
%TA.AperFunction,ComponentPad*%
%ADD19O,1.500000X2.500000*%
%TD*%
%TA.AperFunction,SMDPad,CuDef*%
%ADD20RoundRect,0.250000X-0.450000X0.350000X-0.450000X-0.350000X0.450000X-0.350000X0.450000X0.350000X0*%
%TD*%
%TA.AperFunction,SMDPad,CuDef*%
%ADD21FreePoly0,180.000000*%
%TD*%
%TA.AperFunction,SMDPad,CuDef*%
%ADD22FreePoly1,180.000000*%
%TD*%
%TA.AperFunction,ComponentPad*%
%ADD23R,1.700000X1.700000*%
%TD*%
%TA.AperFunction,ComponentPad*%
%ADD24O,1.700000X1.700000*%
%TD*%
%TA.AperFunction,SMDPad,CuDef*%
%ADD25RoundRect,0.150000X-0.150000X0.825000X-0.150000X-0.825000X0.150000X-0.825000X0.150000X0.825000X0*%
%TD*%
%TA.AperFunction,SMDPad,CuDef*%
%ADD26R,1.500000X0.400000*%
%TD*%
%TA.AperFunction,SMDPad,CuDef*%
%ADD27RoundRect,0.250000X-0.475000X0.337500X-0.475000X-0.337500X0.475000X-0.337500X0.475000X0.337500X0*%
%TD*%
%TA.AperFunction,SMDPad,CuDef*%
%ADD28R,3.500000X2.300000*%
%TD*%
%TA.AperFunction,ComponentPad*%
%ADD29C,1.778000*%
%TD*%
%TA.AperFunction,ComponentPad*%
%ADD30R,3.716000X3.716000*%
%TD*%
%TA.AperFunction,ComponentPad*%
%ADD31C,3.716000*%
%TD*%
%TA.AperFunction,ComponentPad*%
%ADD32O,1.200000X2.400000*%
%TD*%
%TA.AperFunction,ViaPad*%
%ADD33C,0.800000*%
%TD*%
%TA.AperFunction,Conductor*%
%ADD34C,0.250000*%
%TD*%
%TA.AperFunction,Conductor*%
%ADD35C,0.200000*%
%TD*%
%TA.AperFunction,Conductor*%
%ADD36C,0.500000*%
%TD*%
%TA.AperFunction,Conductor*%
%ADD37C,1.000000*%
%TD*%
G04 APERTURE END LIST*
%TO.C,R9*%
G36*
X115750000Y-61300000D02*
G01*
X115250000Y-61300000D01*
X115250000Y-60700000D01*
X115750000Y-60700000D01*
X115750000Y-61300000D01*
G37*
%TD*%
D10*
%TO.P,C3,1*%
%TO.N,+3V3*%
X89962500Y-77500000D03*
%TO.P,C3,2*%
%TO.N,GND*%
X92037500Y-77500000D03*
%TD*%
D11*
%TO.P,R10,1*%
%TO.N,+3V3*%
X116750000Y-65000000D03*
%TO.P,R10,2*%
%TO.N,Net-(R10-Pad2)*%
X114750000Y-65000000D03*
%TD*%
D12*
%TO.P,SWINC1,1,A*%
%TO.N,/INC*%
X158020000Y-76250000D03*
X165980000Y-76250000D03*
%TO.P,SWINC1,2,B*%
%TO.N,GND*%
X158020000Y-80750000D03*
X165980000Y-80750000D03*
%TD*%
D13*
%TO.P,R3,1*%
%TO.N,+3V3*%
X135000000Y-62500000D03*
%TO.P,R3,2*%
%TO.N,/SDA*%
X135000000Y-60500000D03*
%TD*%
D14*
%TO.P,D_HEAT1,1,K*%
%TO.N,GND*%
X117750000Y-92000000D03*
%TO.P,D_HEAT1,2,A*%
%TO.N,Net-(D_HEAT1-Pad2)*%
X119500000Y-92000000D03*
%TD*%
D15*
%TO.P,R4,1*%
%TO.N,VCC*%
X109500000Y-75500000D03*
%TO.P,R4,2*%
%TO.N,Net-(D_PD_POW1-Pad2)*%
X111500000Y-75500000D03*
%TD*%
D13*
%TO.P,R12,1*%
%TO.N,Net-(R12-Pad1)*%
X124750000Y-60000000D03*
%TO.P,R12,2*%
%TO.N,GND*%
X124750000Y-58000000D03*
%TD*%
D15*
%TO.P,R1,1*%
%TO.N,Net-(R1-Pad1)*%
X117500000Y-75500000D03*
%TO.P,R1,2*%
%TO.N,Net-(D_HOT1-Pad2)*%
X119500000Y-75500000D03*
%TD*%
D12*
%TO.P,SWRST1,1,A*%
%TO.N,GND*%
X145480000Y-98250000D03*
X137520000Y-98250000D03*
%TO.P,SWRST1,2,B*%
%TO.N,/ThermalProtector/THM_PROT_RES*%
X145480000Y-102750000D03*
X137520000Y-102750000D03*
%TD*%
D11*
%TO.P,RTHERM1,1*%
%TO.N,+3V3*%
X122500000Y-52000000D03*
%TO.P,RTHERM1,2*%
%TO.N,Net-(R12-Pad1)*%
X120500000Y-52000000D03*
%TD*%
D16*
%TO.P,Q1,1,S*%
%TO.N,GND*%
X104975000Y-70405000D03*
%TO.P,Q1,2,G*%
%TO.N,/OUTA*%
X104975000Y-69135000D03*
%TO.P,Q1,3,S*%
%TO.N,GND*%
X104975000Y-67865000D03*
%TO.P,Q1,4,G*%
%TO.N,/OUTB*%
X104975000Y-66595000D03*
%TO.P,Q1,5,D*%
%TO.N,Net-(D1-Pad2)*%
X100025000Y-66595000D03*
%TO.P,Q1,6,D*%
X100025000Y-67865000D03*
%TO.P,Q1,7,D*%
X100025000Y-69135000D03*
%TO.P,Q1,8,D*%
X100025000Y-70405000D03*
%TD*%
D17*
%TO.P,SWMODE1,*%
%TO.N,*%
X145600000Y-89797500D03*
X137400000Y-89797500D03*
D18*
%TO.P,SWMODE1,1,A*%
%TO.N,+3V3*%
X139500000Y-89797500D03*
D19*
%TO.P,SWMODE1,2,B*%
%TO.N,/MODE*%
X141500000Y-89797500D03*
%TO.P,SWMODE1,3,C*%
%TO.N,GND*%
X143500000Y-89797500D03*
%TD*%
D20*
%TO.P,R15,1*%
%TO.N,+3V3*%
X128000000Y-62500000D03*
%TO.P,R15,2*%
%TO.N,/ThermalProtector/THM_PROT_RES*%
X128000000Y-64500000D03*
%TD*%
D14*
%TO.P,D_HOT1,1,K*%
%TO.N,GND*%
X117750000Y-84000000D03*
%TO.P,D_HOT1,2,A*%
%TO.N,Net-(D_HOT1-Pad2)*%
X119500000Y-84000000D03*
%TD*%
D15*
%TO.P,R13,1*%
%TO.N,+3V3*%
X125500000Y-103000000D03*
%TO.P,R13,2*%
%TO.N,Net-(D_RTD1-Pad2)*%
X127500000Y-103000000D03*
%TD*%
D13*
%TO.P,R2,1*%
%TO.N,+3V3*%
X132500000Y-62500000D03*
%TO.P,R2,2*%
%TO.N,/SCL*%
X132500000Y-60500000D03*
%TD*%
D21*
%TO.P,R9,1*%
%TO.N,/ThermalProtector/THM_PROT_OUT*%
X116150000Y-61000000D03*
D22*
%TO.P,R9,2*%
%TO.N,Net-(R10-Pad2)*%
X114850000Y-61000000D03*
%TD*%
D23*
%TO.P,J1,1,Pin_1*%
%TO.N,VCC*%
X84375000Y-58200000D03*
D24*
X84375000Y-60740000D03*
%TO.P,J1,2,Pin_2*%
%TO.N,GND*%
X84375000Y-63280000D03*
X84375000Y-65820000D03*
%TD*%
D10*
%TO.P,C2,1*%
%TO.N,VCC*%
X85462500Y-77500000D03*
%TO.P,C2,2*%
%TO.N,GND*%
X87537500Y-77500000D03*
%TD*%
D12*
%TO.P,SWDEC1,1,A*%
%TO.N,/DEC*%
X165980000Y-87250000D03*
X158020000Y-87250000D03*
%TO.P,SWDEC1,2,B*%
%TO.N,GND*%
X165980000Y-91750000D03*
X158020000Y-91750000D03*
%TD*%
D23*
%TO.P,U5,1,GND*%
%TO.N,GND*%
X127525000Y-54200000D03*
D24*
%TO.P,U5,2,VCC*%
%TO.N,+3V3*%
X130065000Y-54200000D03*
%TO.P,U5,3,SCL*%
%TO.N,/SCL*%
X132605000Y-54200000D03*
%TO.P,U5,4,SDA*%
%TO.N,/SDA*%
X135145000Y-54200000D03*
%TD*%
D14*
%TO.P,D_RTD1,1,K*%
%TO.N,/ThermalProtector/THM_PROT_OUT*%
X126000000Y-92000000D03*
%TO.P,D_RTD1,2,A*%
%TO.N,Net-(D_RTD1-Pad2)*%
X127750000Y-92000000D03*
%TD*%
%TO.P,D_RUN1,1,K*%
%TO.N,Net-(D_RUN1-Pad1)*%
X126000000Y-84000000D03*
%TO.P,D_RUN1,2,A*%
%TO.N,Net-(D_RUN1-Pad2)*%
X127750000Y-84000000D03*
%TD*%
D10*
%TO.P,C5,1*%
%TO.N,+3V3*%
X119462500Y-65000000D03*
%TO.P,C5,2*%
%TO.N,GND*%
X121537500Y-65000000D03*
%TD*%
D15*
%TO.P,R8,1*%
%TO.N,/FET_DRIVE*%
X117500000Y-103000000D03*
%TO.P,R8,2*%
%TO.N,Net-(D_HEAT1-Pad2)*%
X119500000Y-103000000D03*
%TD*%
D25*
%TO.P,U2,1,ENA*%
%TO.N,Net-(R10-Pad2)*%
X111905000Y-58525000D03*
%TO.P,U2,2,INA*%
%TO.N,/FET_DRIVE*%
X110635000Y-58525000D03*
%TO.P,U2,3,GND*%
%TO.N,GND*%
X109365000Y-58525000D03*
%TO.P,U2,4,INB*%
%TO.N,/FET_DRIVE*%
X108095000Y-58525000D03*
%TO.P,U2,5,OUTB*%
%TO.N,/OUTB*%
X108095000Y-63475000D03*
%TO.P,U2,6,VDD*%
%TO.N,VCC*%
X109365000Y-63475000D03*
%TO.P,U2,7,OUTA*%
%TO.N,/OUTA*%
X110635000Y-63475000D03*
%TO.P,U2,8,ENB*%
%TO.N,Net-(R10-Pad2)*%
X111905000Y-63475000D03*
%TD*%
D15*
%TO.P,R6,1*%
%TO.N,Net-(D_RUN1-Pad1)*%
X126000000Y-75500000D03*
%TO.P,R6,2*%
%TO.N,GND*%
X128000000Y-75500000D03*
%TD*%
D26*
%TO.P,U3,1,HTH*%
%TO.N,/ThermalProtector/THM_PROT_RES*%
X122330000Y-62150000D03*
%TO.P,U3,2,GND*%
%TO.N,GND*%
X122330000Y-61500000D03*
%TO.P,U3,3,LTH*%
%TO.N,Net-(R12-Pad1)*%
X122330000Y-60850000D03*
%TO.P,U3,4,OUT*%
%TO.N,/ThermalProtector/THM_PROT_OUT*%
X119670000Y-60850000D03*
%TO.P,U3,5,VDD*%
%TO.N,+3V3*%
X119670000Y-62150000D03*
%TD*%
D23*
%TO.P,U1,1,A0*%
%TO.N,/FET_DRIVE*%
X168778000Y-52880000D03*
D24*
%TO.P,U1,2,A1*%
%TO.N,Net-(R1-Pad1)*%
X166238000Y-52880000D03*
%TO.P,U1,3,A2*%
%TO.N,unconnected-(U1-Pad3)*%
X163698000Y-52880000D03*
%TO.P,U1,4,A3*%
%TO.N,/OW_DATA*%
X161158000Y-52880000D03*
%TO.P,U1,5,SDA*%
%TO.N,/SDA*%
X158618000Y-52880000D03*
%TO.P,U1,6,SCL*%
%TO.N,/SCL*%
X156078000Y-52880000D03*
%TO.P,U1,7,TX*%
%TO.N,/RUN*%
X153538000Y-52880000D03*
%TO.P,U1,8,RX*%
%TO.N,/DEC*%
X153538000Y-68120000D03*
%TO.P,U1,9,SCK*%
%TO.N,/INC*%
X156078000Y-68120000D03*
%TO.P,U1,10,MISO*%
%TO.N,/MODE*%
X158618000Y-68120000D03*
%TO.P,U1,11,MOSI*%
%TO.N,Net-(D_RUN1-Pad2)*%
X161158000Y-68120000D03*
%TO.P,U1,12,3v3*%
%TO.N,+3V3*%
X163698000Y-68120000D03*
%TO.P,U1,13,GND*%
%TO.N,GND*%
X166238000Y-68120000D03*
D23*
%TO.P,U1,14,5V*%
%TO.N,unconnected-(U1-Pad14)*%
X168778000Y-68120000D03*
%TD*%
%TO.P,U6,1,DATA*%
%TO.N,/OW_DATA*%
X97160000Y-102500000D03*
D24*
%TO.P,U6,2,A3*%
%TO.N,unconnected-(U6-Pad2)*%
X94620000Y-102500000D03*
%TO.P,U6,3,A2*%
%TO.N,unconnected-(U6-Pad3)*%
X92080000Y-102500000D03*
%TO.P,U6,4,A2*%
%TO.N,unconnected-(U6-Pad4)*%
X89540000Y-102500000D03*
%TO.P,U6,5,A0*%
%TO.N,unconnected-(U6-Pad5)*%
X87000000Y-102500000D03*
%TO.P,U6,6,3v3*%
%TO.N,+3V3*%
X84460000Y-102500000D03*
%TO.P,U6,7,VIN*%
%TO.N,unconnected-(U6-Pad7)*%
X81920000Y-102500000D03*
%TO.P,U6,8,GND*%
%TO.N,GND*%
X79380000Y-102500000D03*
%TD*%
D27*
%TO.P,C1,1*%
%TO.N,VCC*%
X90500000Y-64462500D03*
%TO.P,C1,2*%
%TO.N,GND*%
X90500000Y-66537500D03*
%TD*%
D28*
%TO.P,D1,1,K*%
%TO.N,VCC*%
X94300000Y-63000000D03*
%TO.P,D1,2,A*%
%TO.N,Net-(D1-Pad2)*%
X99700000Y-63000000D03*
%TD*%
D15*
%TO.P,R7,1*%
%TO.N,/FET_DRIVE*%
X112250000Y-56000000D03*
%TO.P,R7,2*%
%TO.N,GND*%
X114250000Y-56000000D03*
%TD*%
D29*
%TO.P,U4,1,+Vin*%
%TO.N,VCC*%
X84960000Y-73714000D03*
%TO.P,U4,2,GND*%
%TO.N,GND*%
X87500000Y-73714000D03*
%TO.P,U4,3,+Vout_3v3*%
%TO.N,+3V3*%
X90040000Y-73714000D03*
%TD*%
D14*
%TO.P,D_3V3_POW1,1,K*%
%TO.N,GND*%
X109625000Y-92000000D03*
%TO.P,D_3V3_POW1,2,A*%
%TO.N,Net-(D_3V3_POW1-Pad2)*%
X111375000Y-92000000D03*
%TD*%
D12*
%TO.P,SWRUN1,1,A*%
%TO.N,/RUN*%
X158020000Y-98250000D03*
X165980000Y-98250000D03*
%TO.P,SWRUN1,2,B*%
%TO.N,GND*%
X158020000Y-102750000D03*
X165980000Y-102750000D03*
%TD*%
D15*
%TO.P,R5,1*%
%TO.N,+3V3*%
X109500000Y-103000000D03*
%TO.P,R5,2*%
%TO.N,Net-(D_3V3_POW1-Pad2)*%
X111500000Y-103000000D03*
%TD*%
D14*
%TO.P,D_PD_POW1,1,K*%
%TO.N,GND*%
X109625000Y-84000000D03*
%TO.P,D_PD_POW1,2,A*%
%TO.N,Net-(D_PD_POW1-Pad2)*%
X111375000Y-84000000D03*
%TD*%
D13*
%TO.P,R14,1*%
%TO.N,+3V3*%
X100500000Y-102000000D03*
%TO.P,R14,2*%
%TO.N,/OW_DATA*%
X100500000Y-100000000D03*
%TD*%
D27*
%TO.P,C4,1*%
%TO.N,VCC*%
X106000000Y-61462500D03*
%TO.P,C4,2*%
%TO.N,GND*%
X106000000Y-63537500D03*
%TD*%
D30*
%TO.P,R11,1*%
%TO.N,Net-(D1-Pad2)*%
X102600000Y-57500000D03*
D31*
%TO.P,R11,2*%
%TO.N,VCC*%
X95400000Y-57500000D03*
D32*
%TO.P,R11,S1*%
%TO.N,N/C*%
X105750000Y-51500000D03*
%TO.P,R11,S2*%
X92250000Y-51500000D03*
%TD*%
D33*
%TO.N,VCC*%
X105500000Y-75000000D03*
X107500000Y-77000000D03*
%TO.N,GND*%
X116000000Y-84000000D03*
X123250000Y-65000000D03*
X156500000Y-80750000D03*
X107000000Y-67250000D03*
X167500000Y-102750000D03*
X156500000Y-91750000D03*
X124250000Y-61450500D03*
X136250000Y-98250000D03*
X116000000Y-92000000D03*
X156500000Y-102750000D03*
X87500000Y-78731250D03*
X126250000Y-58000000D03*
X167500000Y-80750000D03*
X92231250Y-66500000D03*
X108000000Y-84000000D03*
X108500000Y-68250000D03*
X107000000Y-70000000D03*
X147000000Y-98250000D03*
X107000000Y-71000000D03*
X109365000Y-56635000D03*
X93500000Y-77500000D03*
X104537500Y-63537500D03*
X129500000Y-75500000D03*
X108500000Y-67250000D03*
X108500000Y-70000000D03*
X167500000Y-91750000D03*
X108472536Y-70972536D03*
X115750000Y-56000000D03*
X108000000Y-92000000D03*
X107000000Y-68250000D03*
%TO.N,+3V3*%
X143250000Y-60750002D03*
X145500000Y-63000000D03*
%TO.N,/ThermalProtector/THM_PROT_OUT*%
X118000000Y-68500000D03*
X118000001Y-63000001D03*
%TO.N,Net-(D_RUN1-Pad2)*%
X143250000Y-64500000D03*
X145000000Y-64500000D03*
%TO.N,/FET_DRIVE*%
X117000000Y-68500000D03*
X117000000Y-58750000D03*
%TO.N,/OW_DATA*%
X97250000Y-100000000D03*
%TO.N,/MODE*%
X143250000Y-65500000D03*
X145000000Y-65500000D03*
%TO.N,/RUN*%
X153500000Y-56000000D03*
%TO.N,/ThermalProtector/THM_PROT_RES*%
X136000000Y-65325020D03*
X136250000Y-102750000D03*
X133250000Y-99750000D03*
X139250000Y-68750000D03*
%TD*%
D34*
%TO.N,VCC*%
X106000000Y-61462500D02*
X105287500Y-61462500D01*
X106000000Y-60250000D02*
X106250000Y-60000000D01*
D35*
X109500000Y-76250000D02*
X108750000Y-77000000D01*
D34*
X106250000Y-60000000D02*
X107000000Y-60000000D01*
X109365000Y-61615000D02*
X107750000Y-60000000D01*
X95400000Y-55100000D02*
X95400000Y-57500000D01*
X107750000Y-60000000D02*
X107000000Y-60000000D01*
X107000000Y-60000000D02*
X107000000Y-55500000D01*
X103250000Y-63500000D02*
X103250000Y-72750000D01*
X106000000Y-61462500D02*
X106000000Y-60250000D01*
X106000000Y-54500000D02*
X96000000Y-54500000D01*
X103250000Y-72750000D02*
X105500000Y-75000000D01*
X105287500Y-61462500D02*
X103250000Y-63500000D01*
X96000000Y-54500000D02*
X95400000Y-55100000D01*
D35*
X109500000Y-75500000D02*
X109500000Y-76250000D01*
D34*
X109365000Y-63475000D02*
X109365000Y-61615000D01*
D35*
X108750000Y-77000000D02*
X107500000Y-77000000D01*
D34*
X107000000Y-55500000D02*
X106000000Y-54500000D01*
%TO.N,GND*%
X109625000Y-92000000D02*
X108000000Y-92000000D01*
D35*
X114250000Y-56000000D02*
X115750000Y-56000000D01*
D34*
X121537500Y-65000000D02*
X123250000Y-65000000D01*
D35*
X165980000Y-91750000D02*
X167500000Y-91750000D01*
D34*
X106000000Y-63537500D02*
X104537500Y-63537500D01*
D35*
X124200500Y-61500000D02*
X124250000Y-61450500D01*
D34*
X117750000Y-92000000D02*
X116500000Y-92000000D01*
D35*
X165980000Y-102750000D02*
X167500000Y-102750000D01*
X124750000Y-58000000D02*
X126250000Y-58000000D01*
D34*
X117750000Y-84000000D02*
X116000000Y-84000000D01*
X109365000Y-58525000D02*
X109365000Y-56635000D01*
D35*
X165980000Y-80750000D02*
X167500000Y-80750000D01*
D34*
X93250000Y-77500000D02*
X93500000Y-77500000D01*
X90768750Y-66500000D02*
X92231250Y-66500000D01*
D35*
X137520000Y-98250000D02*
X136250000Y-98250000D01*
X158020000Y-80750000D02*
X156500000Y-80750000D01*
X158020000Y-91750000D02*
X156500000Y-91750000D01*
D34*
X109625000Y-84000000D02*
X108000000Y-84000000D01*
X116500000Y-92000000D02*
X116000000Y-92000000D01*
D35*
X158020000Y-102750000D02*
X156500000Y-102750000D01*
D34*
X128000000Y-75500000D02*
X129500000Y-75500000D01*
D35*
X122330000Y-61500000D02*
X124200500Y-61500000D01*
D36*
X87500000Y-77268750D02*
X87500000Y-78731250D01*
D35*
X145480000Y-98250000D02*
X147000000Y-98250000D01*
D34*
X92037500Y-77500000D02*
X93250000Y-77500000D01*
%TO.N,+3V3*%
X128000000Y-62500000D02*
X128000000Y-61000000D01*
D37*
X143250000Y-60750000D02*
X143250000Y-60750002D01*
X90000000Y-97000000D02*
X84460000Y-102540000D01*
X109500000Y-103000000D02*
X109500000Y-106000000D01*
X100500000Y-105000000D02*
X100500000Y-102000000D01*
X124000000Y-106750000D02*
X125500000Y-105250000D01*
X119462500Y-65000000D02*
X119462500Y-65962500D01*
X135000000Y-62500000D02*
X137750000Y-62500000D01*
X158578000Y-63000000D02*
X145500000Y-63000000D01*
X110250000Y-106750000D02*
X124000000Y-106750000D01*
X90040000Y-96960000D02*
X90040000Y-73714000D01*
X109500000Y-106000000D02*
X110250000Y-106750000D01*
X125500000Y-105250000D02*
X125500000Y-103000000D01*
X139500000Y-92047500D02*
X139500000Y-89797500D01*
D35*
X119670000Y-63580000D02*
X119500000Y-63750000D01*
D37*
X122500000Y-52000000D02*
X129250000Y-52000000D01*
X125500000Y-105250000D02*
X130000000Y-105250000D01*
X100500000Y-102000000D02*
X108500000Y-102000000D01*
X84460000Y-104460000D02*
X85500000Y-105500000D01*
X136250000Y-93000000D02*
X138547500Y-93000000D01*
D35*
X119670000Y-62150000D02*
X119670000Y-63580000D01*
X119500000Y-63750000D02*
X119500000Y-64962500D01*
D37*
X130065000Y-61815000D02*
X130750000Y-62500000D01*
X130065000Y-54200000D02*
X130065000Y-60435000D01*
X100000000Y-105500000D02*
X100500000Y-105000000D01*
X134750000Y-94500000D02*
X136250000Y-93000000D01*
X137575480Y-66424520D02*
X143250000Y-60750000D01*
X163698000Y-68120000D02*
X158578000Y-63000000D01*
X116750000Y-65304930D02*
X116750000Y-65000000D01*
X85500000Y-105500000D02*
X100000000Y-105500000D01*
X119924520Y-66424520D02*
X137575480Y-66424520D01*
X130000000Y-105250000D02*
X134750000Y-100500000D01*
D35*
X119500000Y-64962500D02*
X119462500Y-65000000D01*
D37*
X138547500Y-93000000D02*
X139500000Y-92047500D01*
X116750000Y-65000000D02*
X119462500Y-65000000D01*
X84460000Y-102500000D02*
X84460000Y-104460000D01*
D34*
X128000000Y-61000000D02*
X128565000Y-60435000D01*
D37*
X119462500Y-65962500D02*
X119924520Y-66424520D01*
X90040000Y-79962500D02*
X102092430Y-79962500D01*
X134750000Y-100500000D02*
X134750000Y-94500000D01*
X130065000Y-52815000D02*
X130065000Y-54200000D01*
X135000000Y-62500000D02*
X132500000Y-62500000D01*
X139625000Y-64375000D02*
X143250000Y-60750000D01*
X137750000Y-62500000D02*
X139625000Y-64375000D01*
D34*
X128565000Y-60435000D02*
X130065000Y-60435000D01*
D37*
X108500000Y-102000000D02*
X109500000Y-103000000D01*
X102092430Y-79962500D02*
X116750000Y-65304930D01*
X129250000Y-52000000D02*
X130065000Y-52815000D01*
X130750000Y-62500000D02*
X132500000Y-62500000D01*
X130065000Y-60435000D02*
X130065000Y-61815000D01*
D34*
%TO.N,Net-(D_3V3_POW1-Pad2)*%
X113000000Y-102500000D02*
X112500000Y-103000000D01*
X112500000Y-103000000D02*
X111500000Y-103000000D01*
X111375000Y-92000000D02*
X112500000Y-92000000D01*
X113000000Y-92500000D02*
X113000000Y-102500000D01*
X112500000Y-92000000D02*
X113000000Y-92500000D01*
%TO.N,Net-(D_HEAT1-Pad2)*%
X120500000Y-103000000D02*
X121500000Y-102000000D01*
X121000000Y-92000000D02*
X119500000Y-92000000D01*
X119500000Y-103000000D02*
X120500000Y-103000000D01*
X121500000Y-102000000D02*
X121500000Y-92500000D01*
X121500000Y-92500000D02*
X121000000Y-92000000D01*
%TO.N,Net-(D_HOT1-Pad2)*%
X121000000Y-83500000D02*
X120500000Y-84000000D01*
X120500000Y-75500000D02*
X121000000Y-76000000D01*
X120500000Y-84000000D02*
X119500000Y-84000000D01*
X119500000Y-75500000D02*
X120500000Y-75500000D01*
X121000000Y-76000000D02*
X121000000Y-83500000D01*
%TO.N,Net-(D_PD_POW1-Pad2)*%
X113000000Y-83500000D02*
X112500000Y-84000000D01*
X112500000Y-75500000D02*
X113000000Y-76000000D01*
X113000000Y-76000000D02*
X113000000Y-83500000D01*
X112500000Y-84000000D02*
X111375000Y-84000000D01*
X111500000Y-75500000D02*
X112500000Y-75500000D01*
%TO.N,/ThermalProtector/THM_PROT_OUT*%
X122625000Y-89000000D02*
X115500000Y-89000000D01*
X115000000Y-88500000D02*
X115000000Y-71524600D01*
X116300000Y-60850000D02*
X119670000Y-60850000D01*
X116150000Y-61000000D02*
X116300000Y-60850000D01*
X115500000Y-89000000D02*
X115000000Y-88500000D01*
X118000000Y-68524600D02*
X118000000Y-68500000D01*
X118000001Y-60850000D02*
X118000001Y-63000001D01*
X119670000Y-60850000D02*
X118000001Y-60850000D01*
X126000000Y-92000000D02*
X125625000Y-92000000D01*
X115000000Y-71524600D02*
X118000000Y-68524600D01*
X125625000Y-92000000D02*
X122625000Y-89000000D01*
%TO.N,Net-(D_RTD1-Pad2)*%
X127750000Y-92000000D02*
X129000000Y-92000000D01*
X129500000Y-92500000D02*
X129500000Y-102500000D01*
X129000000Y-103000000D02*
X127500000Y-103000000D01*
X129500000Y-102500000D02*
X129000000Y-103000000D01*
X129000000Y-92000000D02*
X129500000Y-92500000D01*
%TO.N,Net-(D_RUN1-Pad1)*%
X126000000Y-75500000D02*
X125000000Y-75500000D01*
X125000000Y-75500000D02*
X124500000Y-76000000D01*
X124500000Y-76000000D02*
X124500000Y-83500000D01*
X125000000Y-84000000D02*
X126000000Y-84000000D01*
X124500000Y-83500000D02*
X125000000Y-84000000D01*
%TO.N,Net-(D_RUN1-Pad2)*%
X161158000Y-68120000D02*
X157538000Y-64500000D01*
X127750000Y-84000000D02*
X127750000Y-79225400D01*
X127750000Y-79225400D02*
X142475400Y-64500000D01*
X157538000Y-64500000D02*
X145000000Y-64500000D01*
X142475400Y-64500000D02*
X143250000Y-64500000D01*
%TO.N,/OUTA*%
X110635000Y-67365000D02*
X110635000Y-63475000D01*
X104975000Y-69135000D02*
X108865000Y-69135000D01*
X108865000Y-69135000D02*
X110635000Y-67365000D01*
%TO.N,/OUTB*%
X108095000Y-64655000D02*
X106155000Y-66595000D01*
X108095000Y-63475000D02*
X108095000Y-64655000D01*
X106155000Y-66595000D02*
X104975000Y-66595000D01*
%TO.N,Net-(R1-Pad1)*%
X151000000Y-55250000D02*
X163868000Y-55250000D01*
X163868000Y-55250000D02*
X166238000Y-52880000D01*
X117500000Y-75500000D02*
X117500000Y-75364283D01*
X117500000Y-75364283D02*
X121813803Y-71050480D01*
X121813803Y-71050480D02*
X135199520Y-71050480D01*
X135199520Y-71050480D02*
X151000000Y-55250000D01*
%TO.N,/SCL*%
X132605000Y-60395000D02*
X132500000Y-60500000D01*
X135305000Y-51500000D02*
X154698000Y-51500000D01*
X132605000Y-54200000D02*
X132605000Y-60395000D01*
X154698000Y-51500000D02*
X156078000Y-52880000D01*
X132605000Y-54200000D02*
X135305000Y-51500000D01*
%TO.N,/SDA*%
X158618000Y-52880000D02*
X157248000Y-54250000D01*
X157248000Y-54250000D02*
X135195000Y-54250000D01*
X135000000Y-60500000D02*
X135145000Y-60355000D01*
X135145000Y-60355000D02*
X135145000Y-54200000D01*
X135195000Y-54250000D02*
X135145000Y-54200000D01*
D35*
%TO.N,/FET_DRIVE*%
X117500000Y-103000000D02*
X116250000Y-103000000D01*
D34*
X168778000Y-51278000D02*
X168475480Y-50975480D01*
X108095000Y-56405000D02*
X108885000Y-55615000D01*
X168778000Y-52880000D02*
X168778000Y-51278000D01*
D35*
X114500000Y-101250000D02*
X114500000Y-71000000D01*
D34*
X110635000Y-55615000D02*
X110635000Y-58525000D01*
D35*
X112250000Y-56000000D02*
X113750000Y-57500000D01*
X116250000Y-103000000D02*
X114500000Y-101250000D01*
D34*
X113024520Y-50975480D02*
X111375000Y-52625000D01*
X108885000Y-55615000D02*
X110635000Y-55615000D01*
X108095000Y-58525000D02*
X108095000Y-56405000D01*
D35*
X115750000Y-57500000D02*
X117000000Y-58750000D01*
X112250000Y-56000000D02*
X112250000Y-53500000D01*
X113750000Y-57500000D02*
X115750000Y-57500000D01*
D34*
X168475480Y-50975480D02*
X113024520Y-50975480D01*
D35*
X114500000Y-71000000D02*
X117000000Y-68500000D01*
D34*
X111375000Y-52625000D02*
X110635000Y-53365000D01*
X110635000Y-53365000D02*
X110635000Y-55615000D01*
D35*
X112250000Y-53500000D02*
X111375000Y-52625000D01*
D34*
%TO.N,Net-(R10-Pad2)*%
X114525000Y-58525000D02*
X114850000Y-58850000D01*
X112250000Y-65000000D02*
X115000000Y-65000000D01*
X111905000Y-58525000D02*
X114525000Y-58525000D01*
X111905000Y-63475000D02*
X111905000Y-64655000D01*
X114850000Y-61000000D02*
X114850000Y-64650000D01*
X114850000Y-58850000D02*
X114850000Y-61000000D01*
X114850000Y-64650000D02*
X114500000Y-65000000D01*
X111905000Y-64655000D02*
X112250000Y-65000000D01*
D35*
%TO.N,Net-(R12-Pad1)*%
X123650000Y-60850000D02*
X124500000Y-60000000D01*
X124500000Y-60000000D02*
X124750000Y-60000000D01*
X120500000Y-52000000D02*
X120500000Y-57250000D01*
X122330000Y-59080000D02*
X122330000Y-60850000D01*
X120500000Y-57250000D02*
X122330000Y-59080000D01*
X122330000Y-60850000D02*
X123650000Y-60850000D01*
D34*
%TO.N,/OW_DATA*%
X100500000Y-82887507D02*
X100500000Y-100000000D01*
X100500000Y-100000000D02*
X97250000Y-100000000D01*
X161158000Y-52880000D02*
X159288000Y-54750000D01*
X137775499Y-67724501D02*
X115663006Y-67724501D01*
X159288000Y-54750000D02*
X150750000Y-54750000D01*
X150750000Y-54750000D02*
X137775499Y-67724501D01*
X115663006Y-67724501D02*
X100500000Y-82887507D01*
%TO.N,/MODE*%
X141500000Y-67250000D02*
X143250000Y-65500000D01*
X158618000Y-68120000D02*
X155998000Y-65500000D01*
X155998000Y-65500000D02*
X145000000Y-65500000D01*
X141500000Y-89797500D02*
X141500000Y-67250000D01*
%TO.N,/INC*%
X158020000Y-76250000D02*
X165980000Y-76250000D01*
X156078000Y-68120000D02*
X156078000Y-71578000D01*
X156078000Y-71578000D02*
X158020000Y-73520000D01*
X158020000Y-76250000D02*
X158020000Y-73520000D01*
%TO.N,/DEC*%
X153538000Y-68120000D02*
X153538000Y-82893000D01*
X157895000Y-87250000D02*
X158020000Y-87250000D01*
X158020000Y-87250000D02*
X166500000Y-87250000D01*
X153538000Y-82893000D02*
X157895000Y-87250000D01*
%TO.N,/RUN*%
X158020000Y-98250000D02*
X144250000Y-84480000D01*
X158020000Y-98250000D02*
X165980000Y-98250000D01*
X144250000Y-62750000D02*
X151000000Y-56000000D01*
X144250000Y-84480000D02*
X144250000Y-62750000D01*
X151000000Y-56000000D02*
X153500000Y-56000000D01*
D35*
%TO.N,/ThermalProtector/THM_PROT_RES*%
X137520000Y-102750000D02*
X136250000Y-102750000D01*
X128174980Y-65325020D02*
X128174980Y-64674980D01*
X137520000Y-102750000D02*
X145480000Y-102750000D01*
X128174980Y-64674980D02*
X128000000Y-64500000D01*
X122330000Y-62150000D02*
X125505020Y-65325020D01*
X125505020Y-65325020D02*
X128174980Y-65325020D01*
X139250000Y-68750000D02*
X133250000Y-74750000D01*
X128174980Y-65325020D02*
X136000000Y-65325020D01*
X133250000Y-74750000D02*
X133250000Y-99750000D01*
%TD*%
%TA.AperFunction,Conductor*%
%TO.N,VCC*%
G36*
X89500000Y-63577971D02*
G01*
X89431261Y-63646829D01*
X89422249Y-63658240D01*
X89337184Y-63796243D01*
X89331037Y-63809424D01*
X89279862Y-63963710D01*
X89276995Y-63977086D01*
X89267328Y-64071438D01*
X89267000Y-64077855D01*
X89267000Y-64190385D01*
X89271475Y-64205624D01*
X89272865Y-64206829D01*
X89280548Y-64208500D01*
X89500000Y-64208500D01*
X89500000Y-64716500D01*
X89285116Y-64716500D01*
X89269877Y-64720975D01*
X89268672Y-64722365D01*
X89267001Y-64730048D01*
X89267001Y-64847095D01*
X89267338Y-64853614D01*
X89277257Y-64949206D01*
X89280149Y-64962600D01*
X89331588Y-65116784D01*
X89337761Y-65129962D01*
X89423063Y-65267807D01*
X89432099Y-65279208D01*
X89491616Y-65338622D01*
X89500000Y-65353945D01*
X89500000Y-67874000D01*
X89479998Y-67942121D01*
X89426342Y-67988614D01*
X89374000Y-68000000D01*
X86500000Y-68000000D01*
X86500000Y-73146345D01*
X86479998Y-73214466D01*
X86426342Y-73260959D01*
X86356068Y-73271063D01*
X86291488Y-73241569D01*
X86258450Y-73196587D01*
X86197462Y-73056323D01*
X86192595Y-73047246D01*
X86121268Y-72936993D01*
X86110582Y-72927791D01*
X86101017Y-72932194D01*
X85332021Y-73701189D01*
X85324408Y-73715132D01*
X85324539Y-73716966D01*
X85328790Y-73723580D01*
X86098425Y-74493214D01*
X86110431Y-74499770D01*
X86122170Y-74490802D01*
X86158549Y-74440174D01*
X86163860Y-74431335D01*
X86261043Y-74234701D01*
X86309157Y-74182494D01*
X86377858Y-74164587D01*
X86445335Y-74186666D01*
X86490163Y-74241720D01*
X86500000Y-74290528D01*
X86500000Y-76348887D01*
X86479998Y-76417008D01*
X86426342Y-76463501D01*
X86356068Y-76473605D01*
X86291488Y-76444111D01*
X86284983Y-76438061D01*
X86278172Y-76431262D01*
X86266760Y-76422249D01*
X86128757Y-76337184D01*
X86115576Y-76331037D01*
X85961290Y-76279862D01*
X85947914Y-76276995D01*
X85853562Y-76267328D01*
X85847145Y-76267000D01*
X85734615Y-76267000D01*
X85719376Y-76271475D01*
X85718171Y-76272865D01*
X85716500Y-76280548D01*
X85716500Y-78714884D01*
X85720975Y-78730123D01*
X85722365Y-78731328D01*
X85730048Y-78732999D01*
X85847095Y-78732999D01*
X85853614Y-78732662D01*
X85949206Y-78722743D01*
X85962600Y-78719851D01*
X86116784Y-78668412D01*
X86129962Y-78662239D01*
X86267807Y-78576937D01*
X86279208Y-78567901D01*
X86284826Y-78562273D01*
X86347108Y-78528193D01*
X86417929Y-78533196D01*
X86474802Y-78575692D01*
X86499671Y-78642191D01*
X86500000Y-78651290D01*
X86500000Y-80874000D01*
X86479998Y-80942121D01*
X86426342Y-80988614D01*
X86374000Y-81000000D01*
X74126000Y-81000000D01*
X74057879Y-80979998D01*
X74011386Y-80926342D01*
X74000000Y-80874000D01*
X74000000Y-78022095D01*
X84367001Y-78022095D01*
X84367338Y-78028614D01*
X84377257Y-78124206D01*
X84380149Y-78137600D01*
X84431588Y-78291784D01*
X84437761Y-78304962D01*
X84523063Y-78442807D01*
X84532099Y-78454208D01*
X84646829Y-78568739D01*
X84658240Y-78577751D01*
X84796243Y-78662816D01*
X84809424Y-78668963D01*
X84963710Y-78720138D01*
X84977086Y-78723005D01*
X85071438Y-78732672D01*
X85077854Y-78733000D01*
X85190385Y-78733000D01*
X85205624Y-78728525D01*
X85206829Y-78727135D01*
X85208500Y-78719452D01*
X85208500Y-77772115D01*
X85204025Y-77756876D01*
X85202635Y-77755671D01*
X85194952Y-77754000D01*
X84385116Y-77754000D01*
X84369877Y-77758475D01*
X84368672Y-77759865D01*
X84367001Y-77767548D01*
X84367001Y-78022095D01*
X74000000Y-78022095D01*
X74000000Y-77227885D01*
X84367000Y-77227885D01*
X84371475Y-77243124D01*
X84372865Y-77244329D01*
X84380548Y-77246000D01*
X85190385Y-77246000D01*
X85205624Y-77241525D01*
X85206829Y-77240135D01*
X85208500Y-77232452D01*
X85208500Y-76285116D01*
X85204025Y-76269877D01*
X85202635Y-76268672D01*
X85194952Y-76267001D01*
X85077905Y-76267001D01*
X85071386Y-76267338D01*
X84975794Y-76277257D01*
X84962400Y-76280149D01*
X84808216Y-76331588D01*
X84795038Y-76337761D01*
X84657193Y-76423063D01*
X84645792Y-76432099D01*
X84531261Y-76546829D01*
X84522249Y-76558240D01*
X84437184Y-76696243D01*
X84431037Y-76709424D01*
X84379862Y-76863710D01*
X84376995Y-76877086D01*
X84367328Y-76971438D01*
X84367000Y-76977855D01*
X84367000Y-77227885D01*
X74000000Y-77227885D01*
X74000000Y-74867365D01*
X84171464Y-74867365D01*
X84176745Y-74874420D01*
X84349846Y-74975571D01*
X84359132Y-74980021D01*
X84564083Y-75058283D01*
X84573981Y-75061159D01*
X84788962Y-75104897D01*
X84799190Y-75106116D01*
X85018425Y-75114156D01*
X85028711Y-75113689D01*
X85246320Y-75085813D01*
X85256398Y-75083671D01*
X85466527Y-75020629D01*
X85476125Y-75016868D01*
X85673138Y-74920352D01*
X85681983Y-74915079D01*
X85737209Y-74875686D01*
X85745609Y-74864987D01*
X85738622Y-74851833D01*
X84972811Y-74086021D01*
X84958868Y-74078408D01*
X84957034Y-74078539D01*
X84950420Y-74082790D01*
X84178221Y-74854990D01*
X84171464Y-74867365D01*
X74000000Y-74867365D01*
X74000000Y-73684907D01*
X83558927Y-73684907D01*
X83571557Y-73903932D01*
X83572990Y-73914134D01*
X83621219Y-74128143D01*
X83624302Y-74137983D01*
X83706837Y-74341240D01*
X83711490Y-74350451D01*
X83798098Y-74491780D01*
X83808555Y-74501241D01*
X83817331Y-74497458D01*
X84587979Y-73726811D01*
X84595592Y-73712868D01*
X84595461Y-73711034D01*
X84591210Y-73704420D01*
X83821778Y-72934989D01*
X83810246Y-72928692D01*
X83797964Y-72938315D01*
X83744064Y-73017329D01*
X83738976Y-73026285D01*
X83646611Y-73225270D01*
X83643048Y-73234957D01*
X83584424Y-73446347D01*
X83582493Y-73456468D01*
X83559178Y-73674619D01*
X83558927Y-73684907D01*
X74000000Y-73684907D01*
X74000000Y-72562570D01*
X84173365Y-72562570D01*
X84180108Y-72574897D01*
X84947189Y-73341979D01*
X84961132Y-73349592D01*
X84962966Y-73349461D01*
X84969580Y-73345210D01*
X85741162Y-72573627D01*
X85748179Y-72560776D01*
X85740405Y-72550107D01*
X85739796Y-72549625D01*
X85731210Y-72543921D01*
X85539151Y-72437900D01*
X85529752Y-72433675D01*
X85322950Y-72360443D01*
X85312993Y-72357813D01*
X85097008Y-72319339D01*
X85086757Y-72318370D01*
X84867386Y-72315690D01*
X84857102Y-72316410D01*
X84640251Y-72349592D01*
X84630224Y-72351981D01*
X84421704Y-72420135D01*
X84412195Y-72424132D01*
X84217603Y-72525431D01*
X84208890Y-72530918D01*
X84181819Y-72551244D01*
X84173365Y-72562570D01*
X74000000Y-72562570D01*
X74000000Y-65805262D01*
X83319520Y-65805262D01*
X83336759Y-66010553D01*
X83393544Y-66208586D01*
X83396359Y-66214063D01*
X83396360Y-66214066D01*
X83417247Y-66254707D01*
X83487712Y-66391818D01*
X83615677Y-66553270D01*
X83772564Y-66686791D01*
X83952398Y-66787297D01*
X84047238Y-66818112D01*
X84142471Y-66849056D01*
X84142475Y-66849057D01*
X84148329Y-66850959D01*
X84352894Y-66875351D01*
X84359029Y-66874879D01*
X84359031Y-66874879D01*
X84415039Y-66870569D01*
X84558300Y-66859546D01*
X84564230Y-66857890D01*
X84564232Y-66857890D01*
X84750797Y-66805800D01*
X84750796Y-66805800D01*
X84756725Y-66804145D01*
X84762214Y-66801372D01*
X84762220Y-66801370D01*
X84935116Y-66714033D01*
X84940610Y-66711258D01*
X85102951Y-66584424D01*
X85237564Y-66428472D01*
X85258387Y-66391818D01*
X85336276Y-66254707D01*
X85339323Y-66249344D01*
X85404351Y-66053863D01*
X85430171Y-65849474D01*
X85430583Y-65820000D01*
X85410480Y-65614970D01*
X85350935Y-65417749D01*
X85254218Y-65235849D01*
X85180859Y-65145902D01*
X85127906Y-65080975D01*
X85127903Y-65080972D01*
X85124011Y-65076200D01*
X85106786Y-65061950D01*
X84970025Y-64948811D01*
X84970021Y-64948809D01*
X84965275Y-64944882D01*
X84784055Y-64846897D01*
X84587254Y-64785977D01*
X84581129Y-64785333D01*
X84581128Y-64785333D01*
X84388498Y-64765087D01*
X84388496Y-64765087D01*
X84382369Y-64764443D01*
X84295529Y-64772346D01*
X84183342Y-64782555D01*
X84183339Y-64782556D01*
X84177203Y-64783114D01*
X83979572Y-64841280D01*
X83797002Y-64936726D01*
X83792201Y-64940586D01*
X83792198Y-64940588D01*
X83764821Y-64962600D01*
X83636447Y-65065815D01*
X83504024Y-65223630D01*
X83501056Y-65229028D01*
X83501053Y-65229033D01*
X83440807Y-65338622D01*
X83404776Y-65404162D01*
X83342484Y-65600532D01*
X83341798Y-65606649D01*
X83341797Y-65606653D01*
X83320207Y-65799137D01*
X83319520Y-65805262D01*
X74000000Y-65805262D01*
X74000000Y-61007966D01*
X83043257Y-61007966D01*
X83073565Y-61142446D01*
X83076645Y-61152275D01*
X83156770Y-61349603D01*
X83161413Y-61358794D01*
X83272694Y-61540388D01*
X83278777Y-61548699D01*
X83418213Y-61709667D01*
X83425580Y-61716883D01*
X83589434Y-61852916D01*
X83597881Y-61858831D01*
X83781756Y-61966279D01*
X83791042Y-61970729D01*
X83990001Y-62046703D01*
X84004866Y-62051022D01*
X84004289Y-62053008D01*
X84059260Y-62082082D01*
X84094110Y-62143936D01*
X84089988Y-62214813D01*
X84048201Y-62272209D01*
X84006930Y-62293228D01*
X83985489Y-62299538D01*
X83985484Y-62299540D01*
X83979572Y-62301280D01*
X83797002Y-62396726D01*
X83792201Y-62400586D01*
X83792198Y-62400588D01*
X83781971Y-62408811D01*
X83636447Y-62525815D01*
X83504024Y-62683630D01*
X83501056Y-62689028D01*
X83501053Y-62689033D01*
X83494315Y-62701290D01*
X83404776Y-62864162D01*
X83342484Y-63060532D01*
X83341798Y-63066649D01*
X83341797Y-63066653D01*
X83320207Y-63259137D01*
X83319520Y-63265262D01*
X83336759Y-63470553D01*
X83338458Y-63476478D01*
X83367561Y-63577971D01*
X83393544Y-63668586D01*
X83396359Y-63674063D01*
X83396360Y-63674066D01*
X83484897Y-63846341D01*
X83487712Y-63851818D01*
X83615677Y-64013270D01*
X83772564Y-64146791D01*
X83952398Y-64247297D01*
X84047238Y-64278113D01*
X84142471Y-64309056D01*
X84142475Y-64309057D01*
X84148329Y-64310959D01*
X84352894Y-64335351D01*
X84359029Y-64334879D01*
X84359031Y-64334879D01*
X84415039Y-64330569D01*
X84558300Y-64319546D01*
X84564230Y-64317890D01*
X84564232Y-64317890D01*
X84750797Y-64265800D01*
X84750796Y-64265800D01*
X84756725Y-64264145D01*
X84762214Y-64261372D01*
X84762220Y-64261370D01*
X84935116Y-64174033D01*
X84940610Y-64171258D01*
X85102951Y-64044424D01*
X85237564Y-63888472D01*
X85258387Y-63851818D01*
X85336276Y-63714707D01*
X85339323Y-63709344D01*
X85404351Y-63513863D01*
X85430171Y-63309474D01*
X85430583Y-63280000D01*
X85410480Y-63074970D01*
X85350935Y-62877749D01*
X85254218Y-62695849D01*
X85180859Y-62605902D01*
X85127906Y-62540975D01*
X85127903Y-62540972D01*
X85124011Y-62536200D01*
X85106786Y-62521950D01*
X84970025Y-62408811D01*
X84970021Y-62408809D01*
X84965275Y-62404882D01*
X84784055Y-62306897D01*
X84733183Y-62291150D01*
X84674025Y-62251899D01*
X84645477Y-62186895D01*
X84656605Y-62116776D01*
X84703876Y-62063804D01*
X84734235Y-62050099D01*
X84867255Y-62010191D01*
X84876842Y-62006433D01*
X85068095Y-61912739D01*
X85076945Y-61907464D01*
X85250328Y-61783792D01*
X85258200Y-61777139D01*
X85409052Y-61626812D01*
X85415730Y-61618965D01*
X85540003Y-61446020D01*
X85545313Y-61437183D01*
X85639670Y-61246267D01*
X85643469Y-61236672D01*
X85705377Y-61032910D01*
X85707555Y-61022837D01*
X85708986Y-61011962D01*
X85706775Y-60997778D01*
X85693617Y-60994000D01*
X83058225Y-60994000D01*
X83044694Y-60997973D01*
X83043257Y-61007966D01*
X74000000Y-61007966D01*
X74000000Y-59094669D01*
X83017001Y-59094669D01*
X83017371Y-59101490D01*
X83022895Y-59152352D01*
X83026521Y-59167604D01*
X83071676Y-59288054D01*
X83080214Y-59303649D01*
X83156715Y-59405724D01*
X83169276Y-59418285D01*
X83271351Y-59494786D01*
X83286946Y-59503324D01*
X83396337Y-59544333D01*
X83453101Y-59586975D01*
X83477801Y-59653536D01*
X83462594Y-59722885D01*
X83443201Y-59749366D01*
X83319590Y-59878717D01*
X83313104Y-59886727D01*
X83193098Y-60062649D01*
X83188000Y-60071623D01*
X83098338Y-60264783D01*
X83094775Y-60274470D01*
X83039389Y-60474183D01*
X83040912Y-60482607D01*
X83053292Y-60486000D01*
X84102885Y-60486000D01*
X84118124Y-60481525D01*
X84119329Y-60480135D01*
X84121000Y-60472452D01*
X84121000Y-60467885D01*
X84629000Y-60467885D01*
X84633475Y-60483124D01*
X84634865Y-60484329D01*
X84642548Y-60486000D01*
X85693344Y-60486000D01*
X85706875Y-60482027D01*
X85708180Y-60472947D01*
X85666214Y-60305875D01*
X85662894Y-60296124D01*
X85577972Y-60100814D01*
X85573105Y-60091739D01*
X85457426Y-59912926D01*
X85451136Y-59904757D01*
X85306931Y-59746279D01*
X85275879Y-59682433D01*
X85284273Y-59611934D01*
X85329450Y-59557166D01*
X85355894Y-59543497D01*
X85463054Y-59503324D01*
X85478649Y-59494786D01*
X85580724Y-59418285D01*
X85593285Y-59405724D01*
X85669786Y-59303649D01*
X85678324Y-59288054D01*
X85723478Y-59167606D01*
X85727105Y-59152351D01*
X85732631Y-59101486D01*
X85733000Y-59094672D01*
X85733000Y-58472115D01*
X85728525Y-58456876D01*
X85727135Y-58455671D01*
X85719452Y-58454000D01*
X84647115Y-58454000D01*
X84631876Y-58458475D01*
X84630671Y-58459865D01*
X84629000Y-58467548D01*
X84629000Y-60467885D01*
X84121000Y-60467885D01*
X84121000Y-58472115D01*
X84116525Y-58456876D01*
X84115135Y-58455671D01*
X84107452Y-58454000D01*
X83035116Y-58454000D01*
X83019877Y-58458475D01*
X83018672Y-58459865D01*
X83017001Y-58467548D01*
X83017001Y-59094669D01*
X74000000Y-59094669D01*
X74000000Y-57927885D01*
X83017000Y-57927885D01*
X83021475Y-57943124D01*
X83022865Y-57944329D01*
X83030548Y-57946000D01*
X84102885Y-57946000D01*
X84118124Y-57941525D01*
X84119329Y-57940135D01*
X84121000Y-57932452D01*
X84121000Y-57927885D01*
X84629000Y-57927885D01*
X84633475Y-57943124D01*
X84634865Y-57944329D01*
X84642548Y-57946000D01*
X85714884Y-57946000D01*
X85730123Y-57941525D01*
X85731328Y-57940135D01*
X85732999Y-57932452D01*
X85732999Y-57305331D01*
X85732629Y-57298510D01*
X85727105Y-57247648D01*
X85723479Y-57232396D01*
X85678324Y-57111946D01*
X85669786Y-57096351D01*
X85593285Y-56994276D01*
X85580724Y-56981715D01*
X85478649Y-56905214D01*
X85463054Y-56896676D01*
X85342606Y-56851522D01*
X85327351Y-56847895D01*
X85276486Y-56842369D01*
X85269672Y-56842000D01*
X84647115Y-56842000D01*
X84631876Y-56846475D01*
X84630671Y-56847865D01*
X84629000Y-56855548D01*
X84629000Y-57927885D01*
X84121000Y-57927885D01*
X84121000Y-56860116D01*
X84116525Y-56844877D01*
X84115135Y-56843672D01*
X84107452Y-56842001D01*
X83480331Y-56842001D01*
X83473510Y-56842371D01*
X83422648Y-56847895D01*
X83407396Y-56851521D01*
X83286946Y-56896676D01*
X83271351Y-56905214D01*
X83169276Y-56981715D01*
X83156715Y-56994276D01*
X83080214Y-57096351D01*
X83071676Y-57111946D01*
X83026522Y-57232394D01*
X83022895Y-57247649D01*
X83017369Y-57298514D01*
X83017000Y-57305328D01*
X83017000Y-57927885D01*
X74000000Y-57927885D01*
X74000000Y-56000000D01*
X89500000Y-56000000D01*
X89500000Y-63577971D01*
G37*
%TD.AperFunction*%
%TD*%
%TA.AperFunction,Conductor*%
%TO.N,GND*%
G36*
X108856272Y-69460980D02*
G01*
X108884982Y-69463492D01*
X108951101Y-69489355D01*
X108992740Y-69546859D01*
X109000000Y-69589012D01*
X109000000Y-71374000D01*
X108979998Y-71442121D01*
X108926342Y-71488614D01*
X108874000Y-71500000D01*
X103701500Y-71500000D01*
X103633379Y-71479998D01*
X103586886Y-71426342D01*
X103575500Y-71374000D01*
X103575500Y-71200601D01*
X103595502Y-71132480D01*
X103649158Y-71085987D01*
X103719432Y-71075883D01*
X103765638Y-71092147D01*
X103879775Y-71159646D01*
X103894210Y-71165893D01*
X104040065Y-71208269D01*
X104052667Y-71210570D01*
X104081084Y-71212807D01*
X104086014Y-71213000D01*
X104702885Y-71213000D01*
X104718124Y-71208525D01*
X104719329Y-71207135D01*
X104721000Y-71199452D01*
X104721000Y-71194884D01*
X105229000Y-71194884D01*
X105233475Y-71210123D01*
X105234865Y-71211328D01*
X105242548Y-71212999D01*
X105863984Y-71212999D01*
X105868920Y-71212805D01*
X105897336Y-71210570D01*
X105909931Y-71208270D01*
X106055790Y-71165893D01*
X106070221Y-71159648D01*
X106199678Y-71083089D01*
X106212104Y-71073449D01*
X106318449Y-70967104D01*
X106328089Y-70954678D01*
X106404648Y-70825221D01*
X106410893Y-70810790D01*
X106449939Y-70676395D01*
X106449899Y-70662294D01*
X106442630Y-70659000D01*
X105247115Y-70659000D01*
X105231876Y-70663475D01*
X105230671Y-70664865D01*
X105229000Y-70672548D01*
X105229000Y-71194884D01*
X104721000Y-71194884D01*
X104721000Y-70277000D01*
X104741002Y-70208879D01*
X104794658Y-70162386D01*
X104847000Y-70151000D01*
X106436878Y-70151000D01*
X106450409Y-70147027D01*
X106451544Y-70139129D01*
X106410893Y-69999210D01*
X106404648Y-69984779D01*
X106328089Y-69855322D01*
X106318449Y-69842896D01*
X106212104Y-69736551D01*
X106199677Y-69726911D01*
X106145640Y-69694954D01*
X106097187Y-69643061D01*
X106084482Y-69573211D01*
X106111557Y-69507579D01*
X106169817Y-69467005D01*
X106209779Y-69460500D01*
X108845290Y-69460500D01*
X108856272Y-69460980D01*
G37*
%TD.AperFunction*%
%TA.AperFunction,Conductor*%
G36*
X108942121Y-66770002D02*
G01*
X108988614Y-66823658D01*
X109000000Y-66876000D01*
X109000000Y-68487484D01*
X108979998Y-68555605D01*
X108963095Y-68576579D01*
X108767079Y-68772595D01*
X108704767Y-68806621D01*
X108677984Y-68809500D01*
X106209779Y-68809500D01*
X106141658Y-68789498D01*
X106095165Y-68735842D01*
X106085061Y-68665568D01*
X106114555Y-68600988D01*
X106145640Y-68575046D01*
X106199677Y-68543089D01*
X106212104Y-68533449D01*
X106318449Y-68427104D01*
X106328089Y-68414678D01*
X106404648Y-68285221D01*
X106410893Y-68270790D01*
X106449939Y-68136395D01*
X106449899Y-68122294D01*
X106442630Y-68119000D01*
X104847000Y-68119000D01*
X104778879Y-68098998D01*
X104732386Y-68045342D01*
X104721000Y-67993000D01*
X104721000Y-67737000D01*
X104741002Y-67668879D01*
X104794658Y-67622386D01*
X104847000Y-67611000D01*
X106436878Y-67611000D01*
X106450409Y-67607027D01*
X106451544Y-67599129D01*
X106410893Y-67459210D01*
X106404648Y-67444779D01*
X106328089Y-67315322D01*
X106318449Y-67302896D01*
X106212104Y-67196551D01*
X106199672Y-67186907D01*
X106145715Y-67154997D01*
X106097262Y-67103105D01*
X106084557Y-67033254D01*
X106111632Y-66967623D01*
X106169893Y-66927049D01*
X106183442Y-66924232D01*
X106183807Y-66924264D01*
X106220215Y-66914508D01*
X106230942Y-66912130D01*
X106234301Y-66911538D01*
X106268045Y-66905588D01*
X106277590Y-66900077D01*
X106280866Y-66898885D01*
X106284034Y-66897408D01*
X106294684Y-66894554D01*
X106325544Y-66872945D01*
X106334815Y-66867039D01*
X106357906Y-66853707D01*
X106367455Y-66848194D01*
X106391685Y-66819317D01*
X106399111Y-66811215D01*
X106423421Y-66786905D01*
X106485733Y-66752879D01*
X106512516Y-66750000D01*
X108874000Y-66750000D01*
X108942121Y-66770002D01*
G37*
%TD.AperFunction*%
%TD*%
%TA.AperFunction,Conductor*%
%TO.N,VCC*%
G36*
X91431841Y-50520002D02*
G01*
X91478334Y-50573658D01*
X91488438Y-50643932D01*
X91482123Y-50669089D01*
X91467022Y-50710578D01*
X91449500Y-50849283D01*
X91449500Y-52145155D01*
X91464454Y-52278472D01*
X91523515Y-52448073D01*
X91618684Y-52600375D01*
X91632287Y-52614073D01*
X91740267Y-52722810D01*
X91740271Y-52722813D01*
X91745230Y-52727807D01*
X91751176Y-52731581D01*
X91751178Y-52731582D01*
X91803140Y-52764558D01*
X91896864Y-52824037D01*
X91916890Y-52831168D01*
X92059414Y-52881919D01*
X92059419Y-52881920D01*
X92066049Y-52884281D01*
X92073035Y-52885114D01*
X92073039Y-52885115D01*
X92200823Y-52900352D01*
X92244376Y-52905545D01*
X92251379Y-52904809D01*
X92251380Y-52904809D01*
X92415975Y-52887510D01*
X92415979Y-52887509D01*
X92422983Y-52886773D01*
X92437242Y-52881919D01*
X92586323Y-52831168D01*
X92586326Y-52831167D01*
X92592993Y-52828897D01*
X92607036Y-52820258D01*
X92739955Y-52738485D01*
X92745955Y-52734794D01*
X92750986Y-52729868D01*
X92750989Y-52729865D01*
X92813117Y-52669024D01*
X92874268Y-52609141D01*
X92879918Y-52600375D01*
X92967735Y-52464109D01*
X92971554Y-52458183D01*
X92983456Y-52425485D01*
X93030570Y-52296039D01*
X93030571Y-52296036D01*
X93032978Y-52289422D01*
X93050500Y-52150717D01*
X93050500Y-50854845D01*
X93035546Y-50721528D01*
X93016709Y-50667435D01*
X93013197Y-50596527D01*
X93048578Y-50534975D01*
X93111621Y-50502322D01*
X93135701Y-50500000D01*
X97874000Y-50500000D01*
X97942121Y-50520002D01*
X97988614Y-50573658D01*
X98000000Y-50626000D01*
X98000000Y-57164066D01*
X97979998Y-57232187D01*
X97926342Y-57278680D01*
X97856068Y-57288784D01*
X97791488Y-57259290D01*
X97753104Y-57199564D01*
X97750421Y-57188647D01*
X97691090Y-56890365D01*
X97688959Y-56882413D01*
X97591919Y-56596543D01*
X97588764Y-56588924D01*
X97455239Y-56318165D01*
X97451118Y-56311027D01*
X97283389Y-56060003D01*
X97278391Y-56053488D01*
X97256381Y-56028391D01*
X97243146Y-56019996D01*
X97233379Y-56025831D01*
X95772022Y-57487188D01*
X95764408Y-57501132D01*
X95764539Y-57502965D01*
X95768790Y-57509580D01*
X97231626Y-58972416D01*
X97245387Y-58979930D01*
X97254747Y-58973472D01*
X97278391Y-58946512D01*
X97283389Y-58939997D01*
X97451118Y-58688973D01*
X97455239Y-58681835D01*
X97588764Y-58411076D01*
X97591919Y-58403457D01*
X97688959Y-58117587D01*
X97691090Y-58109635D01*
X97750421Y-57811353D01*
X97783328Y-57748443D01*
X97845023Y-57713311D01*
X97915918Y-57717111D01*
X97973504Y-57758636D01*
X97999498Y-57824703D01*
X98000000Y-57835934D01*
X98000000Y-58947810D01*
X97979998Y-59015931D01*
X97963095Y-59036905D01*
X97000000Y-60000000D01*
X97000000Y-65374000D01*
X96979998Y-65442121D01*
X96926342Y-65488614D01*
X96874000Y-65500000D01*
X91651113Y-65500000D01*
X91582992Y-65479998D01*
X91536499Y-65426342D01*
X91526395Y-65356068D01*
X91555889Y-65291488D01*
X91561939Y-65284983D01*
X91568738Y-65278172D01*
X91577751Y-65266760D01*
X91662816Y-65128757D01*
X91668963Y-65115576D01*
X91720138Y-64961290D01*
X91723005Y-64947914D01*
X91732672Y-64853562D01*
X91733000Y-64847146D01*
X91733000Y-64734615D01*
X91728525Y-64719376D01*
X91727135Y-64718171D01*
X91719452Y-64716500D01*
X90372000Y-64716500D01*
X90303879Y-64696498D01*
X90257386Y-64642842D01*
X90246000Y-64590500D01*
X90246000Y-64190385D01*
X90754000Y-64190385D01*
X90758475Y-64205624D01*
X90759865Y-64206829D01*
X90767548Y-64208500D01*
X91714884Y-64208500D01*
X91730123Y-64204025D01*
X91731328Y-64202635D01*
X91732999Y-64194952D01*
X91732999Y-64194669D01*
X92042001Y-64194669D01*
X92042371Y-64201490D01*
X92047895Y-64252352D01*
X92051521Y-64267604D01*
X92096676Y-64388054D01*
X92105214Y-64403649D01*
X92181715Y-64505724D01*
X92194276Y-64518285D01*
X92296351Y-64594786D01*
X92311946Y-64603324D01*
X92432394Y-64648478D01*
X92447649Y-64652105D01*
X92498514Y-64657631D01*
X92505328Y-64658000D01*
X94027885Y-64658000D01*
X94043124Y-64653525D01*
X94044329Y-64652135D01*
X94046000Y-64644452D01*
X94046000Y-64639884D01*
X94554000Y-64639884D01*
X94558475Y-64655123D01*
X94559865Y-64656328D01*
X94567548Y-64657999D01*
X96094669Y-64657999D01*
X96101490Y-64657629D01*
X96152352Y-64652105D01*
X96167604Y-64648479D01*
X96288054Y-64603324D01*
X96303649Y-64594786D01*
X96405724Y-64518285D01*
X96418285Y-64505724D01*
X96494786Y-64403649D01*
X96503324Y-64388054D01*
X96548478Y-64267606D01*
X96552105Y-64252351D01*
X96557631Y-64201486D01*
X96558000Y-64194672D01*
X96558000Y-63272115D01*
X96553525Y-63256876D01*
X96552135Y-63255671D01*
X96544452Y-63254000D01*
X94572115Y-63254000D01*
X94556876Y-63258475D01*
X94555671Y-63259865D01*
X94554000Y-63267548D01*
X94554000Y-64639884D01*
X94046000Y-64639884D01*
X94046000Y-63272115D01*
X94041525Y-63256876D01*
X94040135Y-63255671D01*
X94032452Y-63254000D01*
X92060116Y-63254000D01*
X92044877Y-63258475D01*
X92043672Y-63259865D01*
X92042001Y-63267548D01*
X92042001Y-64194669D01*
X91732999Y-64194669D01*
X91732999Y-64077905D01*
X91732662Y-64071386D01*
X91722743Y-63975794D01*
X91719851Y-63962400D01*
X91668412Y-63808216D01*
X91662239Y-63795038D01*
X91576937Y-63657193D01*
X91567901Y-63645792D01*
X91453171Y-63531261D01*
X91441760Y-63522249D01*
X91303757Y-63437184D01*
X91290576Y-63431037D01*
X91136290Y-63379862D01*
X91122914Y-63376995D01*
X91028562Y-63367328D01*
X91022145Y-63367000D01*
X90772115Y-63367000D01*
X90756876Y-63371475D01*
X90755671Y-63372865D01*
X90754000Y-63380548D01*
X90754000Y-64190385D01*
X90246000Y-64190385D01*
X90246000Y-63385116D01*
X90241525Y-63369877D01*
X90240135Y-63368672D01*
X90232452Y-63367001D01*
X89977905Y-63367001D01*
X89971386Y-63367338D01*
X89875794Y-63377257D01*
X89862400Y-63380149D01*
X89708216Y-63431588D01*
X89695038Y-63437761D01*
X89557193Y-63523063D01*
X89545792Y-63532099D01*
X89500000Y-63577971D01*
X89500000Y-62727885D01*
X92042000Y-62727885D01*
X92046475Y-62743124D01*
X92047865Y-62744329D01*
X92055548Y-62746000D01*
X94027885Y-62746000D01*
X94043124Y-62741525D01*
X94044329Y-62740135D01*
X94046000Y-62732452D01*
X94046000Y-62727885D01*
X94554000Y-62727885D01*
X94558475Y-62743124D01*
X94559865Y-62744329D01*
X94567548Y-62746000D01*
X96539884Y-62746000D01*
X96555123Y-62741525D01*
X96556328Y-62740135D01*
X96557999Y-62732452D01*
X96557999Y-61805331D01*
X96557629Y-61798510D01*
X96552105Y-61747648D01*
X96548479Y-61732396D01*
X96503324Y-61611946D01*
X96494786Y-61596351D01*
X96418285Y-61494276D01*
X96405724Y-61481715D01*
X96303649Y-61405214D01*
X96288054Y-61396676D01*
X96167606Y-61351522D01*
X96152351Y-61347895D01*
X96101486Y-61342369D01*
X96094672Y-61342000D01*
X94572115Y-61342000D01*
X94556876Y-61346475D01*
X94555671Y-61347865D01*
X94554000Y-61355548D01*
X94554000Y-62727885D01*
X94046000Y-62727885D01*
X94046000Y-61360116D01*
X94041525Y-61344877D01*
X94040135Y-61343672D01*
X94032452Y-61342001D01*
X92505331Y-61342001D01*
X92498510Y-61342371D01*
X92447648Y-61347895D01*
X92432396Y-61351521D01*
X92311946Y-61396676D01*
X92296351Y-61405214D01*
X92194276Y-61481715D01*
X92181715Y-61494276D01*
X92105214Y-61596351D01*
X92096676Y-61611946D01*
X92051522Y-61732394D01*
X92047895Y-61747649D01*
X92042369Y-61798514D01*
X92042000Y-61805328D01*
X92042000Y-62727885D01*
X89500000Y-62727885D01*
X89500000Y-59345387D01*
X93920070Y-59345387D01*
X93926528Y-59354747D01*
X93953488Y-59378391D01*
X93960003Y-59383389D01*
X94211028Y-59551119D01*
X94218165Y-59555240D01*
X94488930Y-59688766D01*
X94496534Y-59691916D01*
X94782413Y-59788959D01*
X94790365Y-59791090D01*
X95086469Y-59849988D01*
X95094627Y-59851062D01*
X95395881Y-59870807D01*
X95404119Y-59870807D01*
X95705373Y-59851062D01*
X95713531Y-59849988D01*
X96009635Y-59791090D01*
X96017587Y-59788959D01*
X96303466Y-59691916D01*
X96311070Y-59688766D01*
X96581835Y-59555240D01*
X96588972Y-59551119D01*
X96839997Y-59383389D01*
X96846512Y-59378391D01*
X96871609Y-59356381D01*
X96880004Y-59343146D01*
X96874169Y-59333379D01*
X95412812Y-57872022D01*
X95398868Y-57864408D01*
X95397035Y-57864539D01*
X95390420Y-57868790D01*
X93927584Y-59331626D01*
X93920070Y-59345387D01*
X89500000Y-59345387D01*
X89500000Y-57504119D01*
X93029193Y-57504119D01*
X93048938Y-57805373D01*
X93050012Y-57813531D01*
X93108910Y-58109635D01*
X93111041Y-58117587D01*
X93208081Y-58403457D01*
X93211236Y-58411076D01*
X93344761Y-58681835D01*
X93348882Y-58688973D01*
X93516611Y-58939997D01*
X93521609Y-58946512D01*
X93543619Y-58971609D01*
X93556854Y-58980004D01*
X93566621Y-58974169D01*
X95027978Y-57512812D01*
X95035592Y-57498868D01*
X95035461Y-57497035D01*
X95031210Y-57490420D01*
X93568374Y-56027584D01*
X93554613Y-56020070D01*
X93545253Y-56026528D01*
X93521609Y-56053488D01*
X93516611Y-56060003D01*
X93348882Y-56311027D01*
X93344761Y-56318165D01*
X93211236Y-56588924D01*
X93208081Y-56596543D01*
X93111041Y-56882413D01*
X93108910Y-56890365D01*
X93050012Y-57186469D01*
X93048938Y-57194627D01*
X93029193Y-57495881D01*
X93029193Y-57504119D01*
X89500000Y-57504119D01*
X89500000Y-56010000D01*
X74000000Y-56000000D01*
X74000000Y-55656854D01*
X93919996Y-55656854D01*
X93925831Y-55666621D01*
X95387188Y-57127978D01*
X95401132Y-57135592D01*
X95402965Y-57135461D01*
X95409580Y-57131210D01*
X96872416Y-55668374D01*
X96879930Y-55654613D01*
X96873472Y-55645253D01*
X96846512Y-55621609D01*
X96839997Y-55616611D01*
X96588972Y-55448881D01*
X96581835Y-55444760D01*
X96311070Y-55311234D01*
X96303466Y-55308084D01*
X96017587Y-55211041D01*
X96009635Y-55208910D01*
X95713531Y-55150012D01*
X95705373Y-55148938D01*
X95404119Y-55129193D01*
X95395881Y-55129193D01*
X95094627Y-55148938D01*
X95086469Y-55150012D01*
X94790365Y-55208910D01*
X94782413Y-55211041D01*
X94496543Y-55308081D01*
X94488924Y-55311236D01*
X94218165Y-55444761D01*
X94211027Y-55448882D01*
X93960003Y-55616611D01*
X93953488Y-55621609D01*
X93928391Y-55643619D01*
X93919996Y-55656854D01*
X74000000Y-55656854D01*
X74000000Y-53042095D01*
X74645028Y-53042095D01*
X74670534Y-53309431D01*
X74734364Y-53570285D01*
X74835182Y-53819192D01*
X74970875Y-54050938D01*
X74973728Y-54054505D01*
X75085225Y-54193925D01*
X75138601Y-54260669D01*
X75334846Y-54443991D01*
X75427039Y-54507948D01*
X75551746Y-54594461D01*
X75551751Y-54594464D01*
X75555499Y-54597064D01*
X75559584Y-54599096D01*
X75559587Y-54599098D01*
X75675719Y-54656872D01*
X75795938Y-54716680D01*
X75800272Y-54718101D01*
X75800275Y-54718102D01*
X76046793Y-54798915D01*
X76046798Y-54798916D01*
X76051126Y-54800335D01*
X76055617Y-54801115D01*
X76055618Y-54801115D01*
X76311936Y-54845620D01*
X76311944Y-54845621D01*
X76315717Y-54846276D01*
X76319554Y-54846467D01*
X76398996Y-54850422D01*
X76399004Y-54850422D01*
X76400567Y-54850500D01*
X76568223Y-54850500D01*
X76570491Y-54850335D01*
X76570503Y-54850335D01*
X76700823Y-54840879D01*
X76767846Y-54836016D01*
X76772301Y-54835032D01*
X76772304Y-54835032D01*
X77025620Y-54779105D01*
X77025624Y-54779104D01*
X77030080Y-54778120D01*
X77197617Y-54714646D01*
X77276941Y-54684593D01*
X77276944Y-54684592D01*
X77281211Y-54682975D01*
X77515976Y-54552574D01*
X77658254Y-54443991D01*
X77725833Y-54392417D01*
X77725837Y-54392413D01*
X77729458Y-54389650D01*
X77917185Y-54197614D01*
X78075225Y-53980491D01*
X78162313Y-53814963D01*
X78198140Y-53746868D01*
X78198143Y-53746862D01*
X78200265Y-53742828D01*
X78259703Y-53574515D01*
X78288165Y-53493916D01*
X78288165Y-53493915D01*
X78289688Y-53489603D01*
X78341620Y-53226122D01*
X78341847Y-53221566D01*
X78354745Y-52962474D01*
X78354745Y-52962468D01*
X78354972Y-52957905D01*
X78329466Y-52690569D01*
X78265636Y-52429715D01*
X78211492Y-52296039D01*
X78166531Y-52185037D01*
X78166531Y-52185036D01*
X78164818Y-52180808D01*
X78029125Y-51949062D01*
X77918211Y-51810371D01*
X77864251Y-51742897D01*
X77864250Y-51742895D01*
X77861399Y-51739331D01*
X77665154Y-51556009D01*
X77505436Y-51445208D01*
X77448254Y-51405539D01*
X77448249Y-51405536D01*
X77444501Y-51402936D01*
X77440416Y-51400904D01*
X77440413Y-51400902D01*
X77268560Y-51315407D01*
X77204062Y-51283320D01*
X77199728Y-51281899D01*
X77199725Y-51281898D01*
X76953207Y-51201085D01*
X76953202Y-51201084D01*
X76948874Y-51199665D01*
X76944382Y-51198885D01*
X76688064Y-51154380D01*
X76688056Y-51154379D01*
X76684283Y-51153724D01*
X76675622Y-51153293D01*
X76601004Y-51149578D01*
X76600996Y-51149578D01*
X76599433Y-51149500D01*
X76431777Y-51149500D01*
X76429509Y-51149665D01*
X76429497Y-51149665D01*
X76299177Y-51159121D01*
X76232154Y-51163984D01*
X76227699Y-51164968D01*
X76227696Y-51164968D01*
X75974380Y-51220895D01*
X75974376Y-51220896D01*
X75969920Y-51221880D01*
X75844355Y-51269452D01*
X75723059Y-51315407D01*
X75723056Y-51315408D01*
X75718789Y-51317025D01*
X75484024Y-51447426D01*
X75480392Y-51450198D01*
X75274167Y-51607583D01*
X75274163Y-51607587D01*
X75270542Y-51610350D01*
X75082815Y-51802386D01*
X74924775Y-52019509D01*
X74922651Y-52023547D01*
X74801860Y-52253132D01*
X74801857Y-52253138D01*
X74799735Y-52257172D01*
X74798215Y-52261477D01*
X74798213Y-52261481D01*
X74728751Y-52458183D01*
X74710312Y-52510397D01*
X74709429Y-52514879D01*
X74666717Y-52731582D01*
X74658380Y-52773878D01*
X74658153Y-52778431D01*
X74658153Y-52778434D01*
X74648992Y-52962474D01*
X74645028Y-53042095D01*
X74000000Y-53042095D01*
X74000000Y-50626000D01*
X74020002Y-50557879D01*
X74073658Y-50511386D01*
X74126000Y-50500000D01*
X91363720Y-50500000D01*
X91431841Y-50520002D01*
G37*
%TD.AperFunction*%
%TD*%
%TA.AperFunction,Conductor*%
%TO.N,Net-(D1-Pad2)*%
G36*
X105442121Y-54845502D02*
G01*
X105488614Y-54899158D01*
X105500000Y-54951500D01*
X105500000Y-59947810D01*
X105479998Y-60015931D01*
X105463095Y-60036905D01*
X102500000Y-63000000D01*
X102500000Y-71874000D01*
X102479998Y-71942121D01*
X102426342Y-71988614D01*
X102374000Y-72000000D01*
X97626000Y-72000000D01*
X97557879Y-71979998D01*
X97511386Y-71926342D01*
X97500000Y-71874000D01*
X97500000Y-70670871D01*
X98548456Y-70670871D01*
X98589107Y-70810790D01*
X98595352Y-70825221D01*
X98671911Y-70954678D01*
X98681551Y-70967104D01*
X98787896Y-71073449D01*
X98800322Y-71083089D01*
X98929779Y-71159648D01*
X98944210Y-71165893D01*
X99090065Y-71208269D01*
X99102667Y-71210570D01*
X99131084Y-71212807D01*
X99136014Y-71213000D01*
X99752885Y-71213000D01*
X99768124Y-71208525D01*
X99769329Y-71207135D01*
X99771000Y-71199452D01*
X99771000Y-71194884D01*
X100279000Y-71194884D01*
X100283475Y-71210123D01*
X100284865Y-71211328D01*
X100292548Y-71212999D01*
X100913984Y-71212999D01*
X100918920Y-71212805D01*
X100947336Y-71210570D01*
X100959931Y-71208270D01*
X101105790Y-71165893D01*
X101120221Y-71159648D01*
X101249678Y-71083089D01*
X101262104Y-71073449D01*
X101368449Y-70967104D01*
X101378089Y-70954678D01*
X101454648Y-70825221D01*
X101460893Y-70810790D01*
X101499939Y-70676395D01*
X101499899Y-70662294D01*
X101492630Y-70659000D01*
X100297115Y-70659000D01*
X100281876Y-70663475D01*
X100280671Y-70664865D01*
X100279000Y-70672548D01*
X100279000Y-71194884D01*
X99771000Y-71194884D01*
X99771000Y-70677115D01*
X99766525Y-70661876D01*
X99765135Y-70660671D01*
X99757452Y-70659000D01*
X98563122Y-70659000D01*
X98549591Y-70662973D01*
X98548456Y-70670871D01*
X97500000Y-70670871D01*
X97500000Y-69400871D01*
X98548456Y-69400871D01*
X98589107Y-69540790D01*
X98595352Y-69555221D01*
X98671912Y-69684678D01*
X98678189Y-69692770D01*
X98704139Y-69758854D01*
X98690241Y-69828477D01*
X98678189Y-69847230D01*
X98671912Y-69855322D01*
X98595352Y-69984779D01*
X98589107Y-69999210D01*
X98550061Y-70133605D01*
X98550101Y-70147706D01*
X98557370Y-70151000D01*
X99752885Y-70151000D01*
X99768124Y-70146525D01*
X99769329Y-70145135D01*
X99771000Y-70137452D01*
X99771000Y-70132885D01*
X100279000Y-70132885D01*
X100283475Y-70148124D01*
X100284865Y-70149329D01*
X100292548Y-70151000D01*
X101486878Y-70151000D01*
X101500409Y-70147027D01*
X101501544Y-70139129D01*
X101460893Y-69999210D01*
X101454648Y-69984779D01*
X101378088Y-69855322D01*
X101371811Y-69847230D01*
X101345861Y-69781146D01*
X101359759Y-69711523D01*
X101371811Y-69692770D01*
X101378088Y-69684678D01*
X101454648Y-69555221D01*
X101460893Y-69540790D01*
X101499939Y-69406395D01*
X101499899Y-69392294D01*
X101492630Y-69389000D01*
X100297115Y-69389000D01*
X100281876Y-69393475D01*
X100280671Y-69394865D01*
X100279000Y-69402548D01*
X100279000Y-70132885D01*
X99771000Y-70132885D01*
X99771000Y-69407115D01*
X99766525Y-69391876D01*
X99765135Y-69390671D01*
X99757452Y-69389000D01*
X98563122Y-69389000D01*
X98549591Y-69392973D01*
X98548456Y-69400871D01*
X97500000Y-69400871D01*
X97500000Y-68130871D01*
X98548456Y-68130871D01*
X98589107Y-68270790D01*
X98595352Y-68285221D01*
X98671912Y-68414678D01*
X98678189Y-68422770D01*
X98704139Y-68488854D01*
X98690241Y-68558477D01*
X98678189Y-68577230D01*
X98671912Y-68585322D01*
X98595352Y-68714779D01*
X98589107Y-68729210D01*
X98550061Y-68863605D01*
X98550101Y-68877706D01*
X98557370Y-68881000D01*
X99752885Y-68881000D01*
X99768124Y-68876525D01*
X99769329Y-68875135D01*
X99771000Y-68867452D01*
X99771000Y-68862885D01*
X100279000Y-68862885D01*
X100283475Y-68878124D01*
X100284865Y-68879329D01*
X100292548Y-68881000D01*
X101486878Y-68881000D01*
X101500409Y-68877027D01*
X101501544Y-68869129D01*
X101460893Y-68729210D01*
X101454648Y-68714779D01*
X101378088Y-68585322D01*
X101371811Y-68577230D01*
X101345861Y-68511146D01*
X101359759Y-68441523D01*
X101371811Y-68422770D01*
X101378088Y-68414678D01*
X101454648Y-68285221D01*
X101460893Y-68270790D01*
X101499939Y-68136395D01*
X101499899Y-68122294D01*
X101492630Y-68119000D01*
X100297115Y-68119000D01*
X100281876Y-68123475D01*
X100280671Y-68124865D01*
X100279000Y-68132548D01*
X100279000Y-68862885D01*
X99771000Y-68862885D01*
X99771000Y-68137115D01*
X99766525Y-68121876D01*
X99765135Y-68120671D01*
X99757452Y-68119000D01*
X98563122Y-68119000D01*
X98549591Y-68122973D01*
X98548456Y-68130871D01*
X97500000Y-68130871D01*
X97500000Y-66860871D01*
X98548456Y-66860871D01*
X98589107Y-67000790D01*
X98595352Y-67015221D01*
X98671912Y-67144678D01*
X98678189Y-67152770D01*
X98704139Y-67218854D01*
X98690241Y-67288477D01*
X98678189Y-67307230D01*
X98671912Y-67315322D01*
X98595352Y-67444779D01*
X98589107Y-67459210D01*
X98550061Y-67593605D01*
X98550101Y-67607706D01*
X98557370Y-67611000D01*
X99752885Y-67611000D01*
X99768124Y-67606525D01*
X99769329Y-67605135D01*
X99771000Y-67597452D01*
X99771000Y-67592885D01*
X100279000Y-67592885D01*
X100283475Y-67608124D01*
X100284865Y-67609329D01*
X100292548Y-67611000D01*
X101486878Y-67611000D01*
X101500409Y-67607027D01*
X101501544Y-67599129D01*
X101460893Y-67459210D01*
X101454648Y-67444779D01*
X101378088Y-67315322D01*
X101371811Y-67307230D01*
X101345861Y-67241146D01*
X101359759Y-67171523D01*
X101371811Y-67152770D01*
X101378088Y-67144678D01*
X101454648Y-67015221D01*
X101460893Y-67000790D01*
X101499939Y-66866395D01*
X101499899Y-66852294D01*
X101492630Y-66849000D01*
X100297115Y-66849000D01*
X100281876Y-66853475D01*
X100280671Y-66854865D01*
X100279000Y-66862548D01*
X100279000Y-67592885D01*
X99771000Y-67592885D01*
X99771000Y-66867115D01*
X99766525Y-66851876D01*
X99765135Y-66850671D01*
X99757452Y-66849000D01*
X98563122Y-66849000D01*
X98549591Y-66852973D01*
X98548456Y-66860871D01*
X97500000Y-66860871D01*
X97500000Y-66323605D01*
X98550061Y-66323605D01*
X98550101Y-66337706D01*
X98557370Y-66341000D01*
X99752885Y-66341000D01*
X99768124Y-66336525D01*
X99769329Y-66335135D01*
X99771000Y-66327452D01*
X99771000Y-66322885D01*
X100279000Y-66322885D01*
X100283475Y-66338124D01*
X100284865Y-66339329D01*
X100292548Y-66341000D01*
X101486878Y-66341000D01*
X101500409Y-66337027D01*
X101501544Y-66329129D01*
X101460893Y-66189210D01*
X101454648Y-66174779D01*
X101378089Y-66045322D01*
X101368449Y-66032896D01*
X101262104Y-65926551D01*
X101249678Y-65916911D01*
X101120221Y-65840352D01*
X101105790Y-65834107D01*
X100959935Y-65791731D01*
X100947333Y-65789430D01*
X100918916Y-65787193D01*
X100913986Y-65787000D01*
X100297115Y-65787000D01*
X100281876Y-65791475D01*
X100280671Y-65792865D01*
X100279000Y-65800548D01*
X100279000Y-66322885D01*
X99771000Y-66322885D01*
X99771000Y-65805116D01*
X99766525Y-65789877D01*
X99765135Y-65788672D01*
X99757452Y-65787001D01*
X99136017Y-65787001D01*
X99131080Y-65787195D01*
X99102664Y-65789430D01*
X99090069Y-65791730D01*
X98944210Y-65834107D01*
X98929779Y-65840352D01*
X98800322Y-65916911D01*
X98787896Y-65926551D01*
X98681551Y-66032896D01*
X98671911Y-66045322D01*
X98595352Y-66174779D01*
X98589107Y-66189210D01*
X98550061Y-66323605D01*
X97500000Y-66323605D01*
X97500000Y-64699519D01*
X97520002Y-64631398D01*
X97573658Y-64584905D01*
X97643932Y-64574801D01*
X97687236Y-64592756D01*
X97688483Y-64590478D01*
X97711946Y-64603324D01*
X97832394Y-64648478D01*
X97847649Y-64652105D01*
X97898514Y-64657631D01*
X97905328Y-64658000D01*
X99427885Y-64658000D01*
X99443124Y-64653525D01*
X99444329Y-64652135D01*
X99446000Y-64644452D01*
X99446000Y-64639884D01*
X99954000Y-64639884D01*
X99958475Y-64655123D01*
X99959865Y-64656328D01*
X99967548Y-64657999D01*
X101494669Y-64657999D01*
X101501490Y-64657629D01*
X101552352Y-64652105D01*
X101567604Y-64648479D01*
X101688054Y-64603324D01*
X101703649Y-64594786D01*
X101805724Y-64518285D01*
X101818285Y-64505724D01*
X101894786Y-64403649D01*
X101903324Y-64388054D01*
X101948478Y-64267606D01*
X101952105Y-64252351D01*
X101957631Y-64201486D01*
X101958000Y-64194672D01*
X101958000Y-63272115D01*
X101953525Y-63256876D01*
X101952135Y-63255671D01*
X101944452Y-63254000D01*
X99972115Y-63254000D01*
X99956876Y-63258475D01*
X99955671Y-63259865D01*
X99954000Y-63267548D01*
X99954000Y-64639884D01*
X99446000Y-64639884D01*
X99446000Y-62727885D01*
X99954000Y-62727885D01*
X99958475Y-62743124D01*
X99959865Y-62744329D01*
X99967548Y-62746000D01*
X101939884Y-62746000D01*
X101955123Y-62741525D01*
X101956328Y-62740135D01*
X101957999Y-62732452D01*
X101957999Y-61805331D01*
X101957629Y-61798510D01*
X101952105Y-61747648D01*
X101948479Y-61732396D01*
X101903324Y-61611946D01*
X101894786Y-61596351D01*
X101818285Y-61494276D01*
X101805724Y-61481715D01*
X101703649Y-61405214D01*
X101688054Y-61396676D01*
X101567606Y-61351522D01*
X101552351Y-61347895D01*
X101501486Y-61342369D01*
X101494672Y-61342000D01*
X99972115Y-61342000D01*
X99956876Y-61346475D01*
X99955671Y-61347865D01*
X99954000Y-61355548D01*
X99954000Y-62727885D01*
X99446000Y-62727885D01*
X99446000Y-61360116D01*
X99441525Y-61344877D01*
X99440135Y-61343672D01*
X99432452Y-61342001D01*
X97905331Y-61342001D01*
X97898510Y-61342371D01*
X97847648Y-61347895D01*
X97832396Y-61351521D01*
X97711946Y-61396676D01*
X97688483Y-61409522D01*
X97686970Y-61406758D01*
X97635072Y-61426154D01*
X97565688Y-61411108D01*
X97515452Y-61360939D01*
X97500000Y-61300481D01*
X97500000Y-60052190D01*
X97520002Y-59984069D01*
X97536905Y-59963095D01*
X98097331Y-59402669D01*
X100234001Y-59402669D01*
X100234371Y-59409490D01*
X100239895Y-59460352D01*
X100243521Y-59475604D01*
X100288676Y-59596054D01*
X100297214Y-59611649D01*
X100373715Y-59713724D01*
X100386276Y-59726285D01*
X100488351Y-59802786D01*
X100503946Y-59811324D01*
X100624394Y-59856478D01*
X100639649Y-59860105D01*
X100690514Y-59865631D01*
X100697328Y-59866000D01*
X102327885Y-59866000D01*
X102343124Y-59861525D01*
X102344329Y-59860135D01*
X102346000Y-59852452D01*
X102346000Y-59847884D01*
X102854000Y-59847884D01*
X102858475Y-59863123D01*
X102859865Y-59864328D01*
X102867548Y-59865999D01*
X104502669Y-59865999D01*
X104509490Y-59865629D01*
X104560352Y-59860105D01*
X104575604Y-59856479D01*
X104696054Y-59811324D01*
X104711649Y-59802786D01*
X104813724Y-59726285D01*
X104826285Y-59713724D01*
X104902786Y-59611649D01*
X104911324Y-59596054D01*
X104956478Y-59475606D01*
X104960105Y-59460351D01*
X104965631Y-59409486D01*
X104966000Y-59402672D01*
X104966000Y-57772115D01*
X104961525Y-57756876D01*
X104960135Y-57755671D01*
X104952452Y-57754000D01*
X102872115Y-57754000D01*
X102856876Y-57758475D01*
X102855671Y-57759865D01*
X102854000Y-57767548D01*
X102854000Y-59847884D01*
X102346000Y-59847884D01*
X102346000Y-57772115D01*
X102341525Y-57756876D01*
X102340135Y-57755671D01*
X102332452Y-57754000D01*
X100252116Y-57754000D01*
X100236877Y-57758475D01*
X100235672Y-57759865D01*
X100234001Y-57767548D01*
X100234001Y-59402669D01*
X98097331Y-59402669D01*
X98500000Y-59000000D01*
X98500000Y-57227885D01*
X100234000Y-57227885D01*
X100238475Y-57243124D01*
X100239865Y-57244329D01*
X100247548Y-57246000D01*
X102327885Y-57246000D01*
X102343124Y-57241525D01*
X102344329Y-57240135D01*
X102346000Y-57232452D01*
X102346000Y-57227885D01*
X102854000Y-57227885D01*
X102858475Y-57243124D01*
X102859865Y-57244329D01*
X102867548Y-57246000D01*
X104947884Y-57246000D01*
X104963123Y-57241525D01*
X104964328Y-57240135D01*
X104965999Y-57232452D01*
X104965999Y-55597331D01*
X104965629Y-55590510D01*
X104960105Y-55539648D01*
X104956479Y-55524396D01*
X104911324Y-55403946D01*
X104902786Y-55388351D01*
X104826285Y-55286276D01*
X104813724Y-55273715D01*
X104711649Y-55197214D01*
X104696054Y-55188676D01*
X104575606Y-55143522D01*
X104560351Y-55139895D01*
X104509486Y-55134369D01*
X104502672Y-55134000D01*
X102872115Y-55134000D01*
X102856876Y-55138475D01*
X102855671Y-55139865D01*
X102854000Y-55147548D01*
X102854000Y-57227885D01*
X102346000Y-57227885D01*
X102346000Y-55152116D01*
X102341525Y-55136877D01*
X102340135Y-55135672D01*
X102332452Y-55134001D01*
X100697331Y-55134001D01*
X100690510Y-55134371D01*
X100639648Y-55139895D01*
X100624396Y-55143521D01*
X100503946Y-55188676D01*
X100488351Y-55197214D01*
X100386276Y-55273715D01*
X100373715Y-55286276D01*
X100297214Y-55388351D01*
X100288676Y-55403946D01*
X100243522Y-55524394D01*
X100239895Y-55539649D01*
X100234369Y-55590514D01*
X100234000Y-55597328D01*
X100234000Y-57227885D01*
X98500000Y-57227885D01*
X98500000Y-54951500D01*
X98520002Y-54883379D01*
X98573658Y-54836886D01*
X98626000Y-54825500D01*
X105374000Y-54825500D01*
X105442121Y-54845502D01*
G37*
%TD.AperFunction*%
%TD*%
M02*
