M48
; DRILL file {KiCad (6.0.4)} date Thu Dec 15 09:54:19 2022
; FORMAT={-:-/ absolute / inch / decimal}
; #@! TF.CreationDate,2022-12-15T09:54:19-05:00
; #@! TF.GenerationSoftware,Kicad,Pcbnew,(6.0.4)
; #@! TF.FileFunction,Plated,1,2,PTH
FMAT,2
INCH
; #@! TA.AperFunction,Plated,PTH,ViaDrill
T1C0.0157
; #@! TA.AperFunction,Plated,PTH,ComponentDrill
T2C0.0236
; #@! TA.AperFunction,Plated,PTH,ComponentDrill
T3C0.0315
; #@! TA.AperFunction,Plated,PTH,ComponentDrill
T4C0.0394
; #@! TA.AperFunction,Plated,PTH,ComponentDrill
T5C0.0400
; #@! TA.AperFunction,Plated,PTH,ComponentDrill
T6C0.0591
; #@! TA.AperFunction,Plated,PTH,ComponentDrill
T7C0.1063
%
G90
G05
T1
X3.4449Y-3.0997
X3.6312Y-2.6181
X3.6811Y-3.0512
X3.8287Y-3.937
X4.1156Y-2.5015
X4.1535Y-2.9528
X4.2126Y-2.6476
X4.2126Y-2.687
X4.2126Y-2.7559
X4.2126Y-2.7953
X4.2323Y-3.0315
X4.252Y-3.3071
X4.252Y-3.622
X4.2706Y-2.7942
X4.2717Y-2.6476
X4.2717Y-2.687
X4.2717Y-2.7559
X4.3057Y-2.2297
X4.5571Y-2.2047
X4.5669Y-3.3071
X4.5669Y-3.622
X4.6063Y-2.313
X4.6063Y-2.6969
X4.6457Y-2.6969
X4.6457Y-2.4803
X4.8524Y-2.5591
X4.8917Y-2.4193
X4.9705Y-2.2835
X5.0984Y-2.9724
X5.2461Y-3.9272
X5.3543Y-2.5719
X5.3642Y-3.8681
X5.3642Y-4.0453
X5.4823Y-2.7067
X5.6398Y-2.3917
X5.6398Y-2.5394
X5.6398Y-2.5787
X5.7087Y-2.5394
X5.7087Y-2.5787
X5.7283Y-2.4803
X5.7874Y-3.8681
X6.0433Y-2.2047
X6.1614Y-3.1791
X6.1614Y-3.6122
X6.1614Y-4.0453
X6.5945Y-3.1791
X6.5945Y-3.6122
X6.5945Y-4.0453
T3
X5.4921Y-3.5353
X5.5709Y-3.5353
X5.6496Y-3.5353
T4
X3.1252Y-4.0354
X3.2252Y-4.0354
X3.3219Y-2.2913
X3.3219Y-2.3913
X3.3219Y-2.4913
X3.3219Y-2.5913
X3.3252Y-4.0354
X3.4252Y-4.0354
X3.5252Y-4.0354
X3.6252Y-4.0354
X3.7252Y-4.0354
X3.8252Y-4.0354
X5.0207Y-2.1339
X5.1207Y-2.1339
X5.2207Y-2.1339
X5.3207Y-2.1339
X6.0448Y-2.0819
X6.0448Y-2.6819
X6.1448Y-2.0819
X6.1448Y-2.6819
X6.2448Y-2.0819
X6.2448Y-2.6819
X6.3448Y-2.0819
X6.3448Y-2.6819
X6.4448Y-2.0819
X6.4448Y-2.6819
X6.5448Y-2.0819
X6.5448Y-2.6819
X6.6448Y-2.0819
X6.6448Y-2.6819
T5
X3.3449Y-2.9021
X3.4449Y-2.9021
X3.5449Y-2.9021
T6
X5.4094Y-3.5353
X5.7323Y-3.5353
T7
X3.7559Y-2.2638
X4.0394Y-2.2638
T2
G00X3.6319Y-2.0059
M15
G01X3.6319Y-2.0492
M16
G05
G00X4.1634Y-2.0059
M15
G01X4.1634Y-2.0492
M16
G05
T0
M30
