%TF.GenerationSoftware,KiCad,Pcbnew,(6.0.4)*%
%TF.CreationDate,2022-12-15T09:54:16-05:00*%
%TF.ProjectId,HPcontroller,4850636f-6e74-4726-9f6c-6c65722e6b69,rev?*%
%TF.SameCoordinates,Original*%
%TF.FileFunction,Soldermask,Bot*%
%TF.FilePolarity,Negative*%
%FSLAX46Y46*%
G04 Gerber Fmt 4.6, Leading zero omitted, Abs format (unit mm)*
G04 Created by KiCad (PCBNEW (6.0.4)) date 2022-12-15 09:54:16*
%MOMM*%
%LPD*%
G01*
G04 APERTURE LIST*
%ADD10O,2.200000X3.500000*%
%ADD11R,1.500000X2.500000*%
%ADD12O,1.500000X2.500000*%
%ADD13C,3.200000*%
%ADD14R,1.700000X1.700000*%
%ADD15O,1.700000X1.700000*%
%ADD16C,1.778000*%
%ADD17R,3.716000X3.716000*%
%ADD18C,3.716000*%
%ADD19O,1.200000X2.400000*%
G04 APERTURE END LIST*
D10*
%TO.C,SWMODE1*%
X145600000Y-89797500D03*
X137400000Y-89797500D03*
D11*
X139500000Y-89797500D03*
D12*
X141500000Y-89797500D03*
X143500000Y-89797500D03*
%TD*%
D13*
%TO.C,H2*%
X76500000Y-53000000D03*
%TD*%
D14*
%TO.C,J1*%
X84375000Y-58200000D03*
D15*
X84375000Y-60740000D03*
X84375000Y-63280000D03*
X84375000Y-65820000D03*
%TD*%
D13*
%TO.C,H1*%
X76500000Y-108000000D03*
%TD*%
D14*
%TO.C,U5*%
X127525000Y-54200000D03*
D15*
X130065000Y-54200000D03*
X132605000Y-54200000D03*
X135145000Y-54200000D03*
%TD*%
D13*
%TO.C,H4*%
X169500000Y-60500000D03*
%TD*%
%TO.C,H3*%
X169500000Y-108000000D03*
%TD*%
D14*
%TO.C,U1*%
X168778000Y-52880000D03*
D15*
X166238000Y-52880000D03*
X163698000Y-52880000D03*
X161158000Y-52880000D03*
X158618000Y-52880000D03*
X156078000Y-52880000D03*
X153538000Y-52880000D03*
X153538000Y-68120000D03*
X156078000Y-68120000D03*
X158618000Y-68120000D03*
X161158000Y-68120000D03*
X163698000Y-68120000D03*
X166238000Y-68120000D03*
D14*
X168778000Y-68120000D03*
%TD*%
%TO.C,U6*%
X97160000Y-102500000D03*
D15*
X94620000Y-102500000D03*
X92080000Y-102500000D03*
X89540000Y-102500000D03*
X87000000Y-102500000D03*
X84460000Y-102500000D03*
X81920000Y-102500000D03*
X79380000Y-102500000D03*
%TD*%
D16*
%TO.C,U4*%
X84960000Y-73714000D03*
X87500000Y-73714000D03*
X90040000Y-73714000D03*
%TD*%
D17*
%TO.C,R11*%
X102600000Y-57500000D03*
D18*
X95400000Y-57500000D03*
D19*
X105750000Y-51500000D03*
X92250000Y-51500000D03*
%TD*%
M02*
