%TF.GenerationSoftware,KiCad,Pcbnew,(6.0.4)*%
%TF.CreationDate,2022-12-15T09:54:16-05:00*%
%TF.ProjectId,HPcontroller,4850636f-6e74-4726-9f6c-6c65722e6b69,rev?*%
%TF.SameCoordinates,Original*%
%TF.FileFunction,Legend,Top*%
%TF.FilePolarity,Positive*%
%FSLAX46Y46*%
G04 Gerber Fmt 4.6, Leading zero omitted, Abs format (unit mm)*
G04 Created by KiCad (PCBNEW (6.0.4)) date 2022-12-15 09:54:16*
%MOMM*%
%LPD*%
G01*
G04 APERTURE LIST*
%ADD10C,0.150000*%
%ADD11C,0.300000*%
%ADD12C,0.120000*%
%ADD13C,0.127000*%
G04 APERTURE END LIST*
D10*
X135500000Y-94500000D02*
X147500000Y-94500000D01*
X147500000Y-94500000D02*
X147500000Y-84500000D01*
X147500000Y-84500000D02*
X135500000Y-84500000D01*
X135500000Y-84500000D02*
X135500000Y-94500000D01*
X151500000Y-83500000D02*
X151500000Y-100500000D01*
X130375000Y-83500000D02*
X151500000Y-83500000D01*
X115125000Y-90000000D02*
X122125000Y-90000000D01*
X122125000Y-90000000D02*
X122125000Y-98000000D01*
X122125000Y-98000000D02*
X115125000Y-98000000D01*
X115125000Y-98000000D02*
X115125000Y-90000000D01*
X151500000Y-100500000D02*
X156000000Y-100500000D01*
X156000000Y-84500000D02*
X168000000Y-84500000D01*
X168000000Y-84500000D02*
X168000000Y-94000000D01*
X168000000Y-94000000D02*
X156000000Y-94000000D01*
X156000000Y-94000000D02*
X156000000Y-84500000D01*
X156000000Y-73500000D02*
X168000000Y-73500000D01*
X168000000Y-73500000D02*
X168000000Y-83000000D01*
X168000000Y-83000000D02*
X156000000Y-83000000D01*
X156000000Y-83000000D02*
X156000000Y-73500000D01*
X130500000Y-97000000D02*
X135500000Y-97000000D01*
X156000000Y-95500000D02*
X168000000Y-95500000D01*
X168000000Y-95500000D02*
X168000000Y-105000000D01*
X168000000Y-105000000D02*
X156000000Y-105000000D01*
X156000000Y-105000000D02*
X156000000Y-95500000D01*
X107000000Y-90000000D02*
X114000000Y-90000000D01*
X114000000Y-90000000D02*
X114000000Y-98000000D01*
X114000000Y-98000000D02*
X107000000Y-98000000D01*
X107000000Y-98000000D02*
X107000000Y-90000000D01*
X115125000Y-80000000D02*
X122125000Y-80000000D01*
X122125000Y-80000000D02*
X122125000Y-88000000D01*
X122125000Y-88000000D02*
X115125000Y-88000000D01*
X115125000Y-88000000D02*
X115125000Y-80000000D01*
X123375000Y-90000000D02*
X130375000Y-90000000D01*
X130375000Y-90000000D02*
X130375000Y-98000000D01*
X130375000Y-98000000D02*
X123375000Y-98000000D01*
X123375000Y-98000000D02*
X123375000Y-90000000D01*
X78000000Y-104000000D02*
X98500000Y-104000000D01*
X98500000Y-104000000D02*
X98500000Y-83500000D01*
X98500000Y-83500000D02*
X78000000Y-83500000D01*
X78000000Y-83500000D02*
X78000000Y-104000000D01*
X107000000Y-80000000D02*
X114000000Y-80000000D01*
X114000000Y-80000000D02*
X114000000Y-88000000D01*
X114000000Y-88000000D02*
X107000000Y-88000000D01*
X107000000Y-88000000D02*
X107000000Y-80000000D01*
X123375000Y-80000000D02*
X130375000Y-80000000D01*
X130375000Y-80000000D02*
X130375000Y-88000000D01*
X130375000Y-88000000D02*
X123375000Y-88000000D01*
X123375000Y-88000000D02*
X123375000Y-80000000D01*
X135500000Y-95500000D02*
X147500000Y-95500000D01*
X147500000Y-95500000D02*
X147500000Y-105000000D01*
X147500000Y-105000000D02*
X135500000Y-105000000D01*
X135500000Y-105000000D02*
X135500000Y-95500000D01*
X138047619Y-96952380D02*
X137714285Y-96476190D01*
X137476190Y-96952380D02*
X137476190Y-95952380D01*
X137857142Y-95952380D01*
X137952380Y-96000000D01*
X138000000Y-96047619D01*
X138047619Y-96142857D01*
X138047619Y-96285714D01*
X138000000Y-96380952D01*
X137952380Y-96428571D01*
X137857142Y-96476190D01*
X137476190Y-96476190D01*
X138476190Y-96428571D02*
X138809523Y-96428571D01*
X138952380Y-96952380D02*
X138476190Y-96952380D01*
X138476190Y-95952380D01*
X138952380Y-95952380D01*
X139333333Y-96904761D02*
X139476190Y-96952380D01*
X139714285Y-96952380D01*
X139809523Y-96904761D01*
X139857142Y-96857142D01*
X139904761Y-96761904D01*
X139904761Y-96666666D01*
X139857142Y-96571428D01*
X139809523Y-96523809D01*
X139714285Y-96476190D01*
X139523809Y-96428571D01*
X139428571Y-96380952D01*
X139380952Y-96333333D01*
X139333333Y-96238095D01*
X139333333Y-96142857D01*
X139380952Y-96047619D01*
X139428571Y-96000000D01*
X139523809Y-95952380D01*
X139761904Y-95952380D01*
X139904761Y-96000000D01*
X140333333Y-96428571D02*
X140666666Y-96428571D01*
X140809523Y-96952380D02*
X140333333Y-96952380D01*
X140333333Y-95952380D01*
X140809523Y-95952380D01*
X141095238Y-95952380D02*
X141666666Y-95952380D01*
X141380952Y-96952380D02*
X141380952Y-95952380D01*
X142619047Y-95952380D02*
X143190476Y-95952380D01*
X142904761Y-96952380D02*
X142904761Y-95952380D01*
X144095238Y-96952380D02*
X143761904Y-96476190D01*
X143523809Y-96952380D02*
X143523809Y-95952380D01*
X143904761Y-95952380D01*
X144000000Y-96000000D01*
X144047619Y-96047619D01*
X144095238Y-96142857D01*
X144095238Y-96285714D01*
X144047619Y-96380952D01*
X144000000Y-96428571D01*
X143904761Y-96476190D01*
X143523809Y-96476190D01*
X144523809Y-96952380D02*
X144523809Y-95952380D01*
X145000000Y-96952380D02*
X145000000Y-95952380D01*
X145380952Y-95952380D01*
X145476190Y-96000000D01*
X145523809Y-96047619D01*
X145571428Y-96142857D01*
X145571428Y-96285714D01*
X145523809Y-96380952D01*
X145476190Y-96428571D01*
X145380952Y-96476190D01*
X145000000Y-96476190D01*
X159785714Y-85952380D02*
X159785714Y-84952380D01*
X160023809Y-84952380D01*
X160166666Y-85000000D01*
X160261904Y-85095238D01*
X160309523Y-85190476D01*
X160357142Y-85380952D01*
X160357142Y-85523809D01*
X160309523Y-85714285D01*
X160261904Y-85809523D01*
X160166666Y-85904761D01*
X160023809Y-85952380D01*
X159785714Y-85952380D01*
X160785714Y-85428571D02*
X161119047Y-85428571D01*
X161261904Y-85952380D02*
X160785714Y-85952380D01*
X160785714Y-84952380D01*
X161261904Y-84952380D01*
X162261904Y-85857142D02*
X162214285Y-85904761D01*
X162071428Y-85952380D01*
X161976190Y-85952380D01*
X161833333Y-85904761D01*
X161738095Y-85809523D01*
X161690476Y-85714285D01*
X161642857Y-85523809D01*
X161642857Y-85380952D01*
X161690476Y-85190476D01*
X161738095Y-85095238D01*
X161833333Y-85000000D01*
X161976190Y-84952380D01*
X162071428Y-84952380D01*
X162214285Y-85000000D01*
X162261904Y-85047619D01*
X163452380Y-85571428D02*
X164214285Y-85571428D01*
D11*
X109357142Y-82178571D02*
X109357142Y-80678571D01*
X109928571Y-80678571D01*
X110071428Y-80750000D01*
X110142857Y-80821428D01*
X110214285Y-80964285D01*
X110214285Y-81178571D01*
X110142857Y-81321428D01*
X110071428Y-81392857D01*
X109928571Y-81464285D01*
X109357142Y-81464285D01*
X110857142Y-82178571D02*
X110857142Y-80678571D01*
X111214285Y-80678571D01*
X111428571Y-80750000D01*
X111571428Y-80892857D01*
X111642857Y-81035714D01*
X111714285Y-81321428D01*
X111714285Y-81535714D01*
X111642857Y-81821428D01*
X111571428Y-81964285D01*
X111428571Y-82107142D01*
X111214285Y-82178571D01*
X110857142Y-82178571D01*
X124589285Y-93678571D02*
X125446428Y-93678571D01*
X125017857Y-95178571D02*
X125017857Y-93678571D01*
X126803571Y-95178571D02*
X126303571Y-94464285D01*
X125946428Y-95178571D02*
X125946428Y-93678571D01*
X126517857Y-93678571D01*
X126660714Y-93750000D01*
X126732142Y-93821428D01*
X126803571Y-93964285D01*
X126803571Y-94178571D01*
X126732142Y-94321428D01*
X126660714Y-94392857D01*
X126517857Y-94464285D01*
X125946428Y-94464285D01*
X127446428Y-95178571D02*
X127446428Y-93678571D01*
X128160714Y-95178571D02*
X128160714Y-93678571D01*
X128732142Y-93678571D01*
X128875000Y-93750000D01*
X128946428Y-93821428D01*
X129017857Y-93964285D01*
X129017857Y-94178571D01*
X128946428Y-94321428D01*
X128875000Y-94392857D01*
X128732142Y-94464285D01*
X128160714Y-94464285D01*
X116178571Y-95178571D02*
X116178571Y-93678571D01*
X116178571Y-94392857D02*
X117035714Y-94392857D01*
X117035714Y-95178571D02*
X117035714Y-93678571D01*
X117750000Y-94392857D02*
X118250000Y-94392857D01*
X118464285Y-95178571D02*
X117750000Y-95178571D01*
X117750000Y-93678571D01*
X118464285Y-93678571D01*
X119035714Y-94750000D02*
X119750000Y-94750000D01*
X118892857Y-95178571D02*
X119392857Y-93678571D01*
X119892857Y-95178571D01*
X120178571Y-93678571D02*
X121035714Y-93678571D01*
X120607142Y-95178571D02*
X120607142Y-93678571D01*
D10*
X148666666Y-88842380D02*
X148666666Y-87842380D01*
X149000000Y-88556666D01*
X149333333Y-87842380D01*
X149333333Y-88842380D01*
X148761904Y-90166666D02*
X149238095Y-90166666D01*
X148666666Y-90452380D02*
X149000000Y-89452380D01*
X149333333Y-90452380D01*
X148714285Y-92062380D02*
X148714285Y-91062380D01*
X149285714Y-92062380D01*
X149285714Y-91062380D01*
X159976190Y-74952380D02*
X159976190Y-73952380D01*
X160452380Y-74952380D02*
X160452380Y-73952380D01*
X161023809Y-74952380D01*
X161023809Y-73952380D01*
X162071428Y-74857142D02*
X162023809Y-74904761D01*
X161880952Y-74952380D01*
X161785714Y-74952380D01*
X161642857Y-74904761D01*
X161547619Y-74809523D01*
X161500000Y-74714285D01*
X161452380Y-74523809D01*
X161452380Y-74380952D01*
X161500000Y-74190476D01*
X161547619Y-74095238D01*
X161642857Y-74000000D01*
X161785714Y-73952380D01*
X161880952Y-73952380D01*
X162023809Y-74000000D01*
X162071428Y-74047619D01*
X163261904Y-74571428D02*
X164023809Y-74571428D01*
X163642857Y-74952380D02*
X163642857Y-74190476D01*
D11*
X116482142Y-82178571D02*
X116482142Y-80678571D01*
X116482142Y-81392857D02*
X117339285Y-81392857D01*
X117339285Y-82178571D02*
X117339285Y-80678571D01*
X118339285Y-80678571D02*
X118625000Y-80678571D01*
X118767857Y-80750000D01*
X118910714Y-80892857D01*
X118982142Y-81178571D01*
X118982142Y-81678571D01*
X118910714Y-81964285D01*
X118767857Y-82107142D01*
X118625000Y-82178571D01*
X118339285Y-82178571D01*
X118196428Y-82107142D01*
X118053571Y-81964285D01*
X117982142Y-81678571D01*
X117982142Y-81178571D01*
X118053571Y-80892857D01*
X118196428Y-80750000D01*
X118339285Y-80678571D01*
X119410714Y-80678571D02*
X120267857Y-80678571D01*
X119839285Y-82178571D02*
X119839285Y-80678571D01*
X120767857Y-82035714D02*
X120839285Y-82107142D01*
X120767857Y-82178571D01*
X120696428Y-82107142D01*
X120767857Y-82035714D01*
X120767857Y-82178571D01*
X120767857Y-81607142D02*
X120696428Y-80750000D01*
X120767857Y-80678571D01*
X120839285Y-80750000D01*
X120767857Y-81607142D01*
X120767857Y-80678571D01*
D10*
X139690476Y-82952380D02*
X139690476Y-81952380D01*
X140023809Y-82666666D01*
X140357142Y-81952380D01*
X140357142Y-82952380D01*
X141023809Y-81952380D02*
X141214285Y-81952380D01*
X141309523Y-82000000D01*
X141404761Y-82095238D01*
X141452380Y-82285714D01*
X141452380Y-82619047D01*
X141404761Y-82809523D01*
X141309523Y-82904761D01*
X141214285Y-82952380D01*
X141023809Y-82952380D01*
X140928571Y-82904761D01*
X140833333Y-82809523D01*
X140785714Y-82619047D01*
X140785714Y-82285714D01*
X140833333Y-82095238D01*
X140928571Y-82000000D01*
X141023809Y-81952380D01*
X141880952Y-82952380D02*
X141880952Y-81952380D01*
X142119047Y-81952380D01*
X142261904Y-82000000D01*
X142357142Y-82095238D01*
X142404761Y-82190476D01*
X142452380Y-82380952D01*
X142452380Y-82523809D01*
X142404761Y-82714285D01*
X142357142Y-82809523D01*
X142261904Y-82904761D01*
X142119047Y-82952380D01*
X141880952Y-82952380D01*
X142880952Y-82428571D02*
X143214285Y-82428571D01*
X143357142Y-82952380D02*
X142880952Y-82952380D01*
X142880952Y-81952380D01*
X143357142Y-81952380D01*
X158857142Y-96952380D02*
X158523809Y-96476190D01*
X158285714Y-96952380D02*
X158285714Y-95952380D01*
X158666666Y-95952380D01*
X158761904Y-96000000D01*
X158809523Y-96047619D01*
X158857142Y-96142857D01*
X158857142Y-96285714D01*
X158809523Y-96380952D01*
X158761904Y-96428571D01*
X158666666Y-96476190D01*
X158285714Y-96476190D01*
X159285714Y-95952380D02*
X159285714Y-96761904D01*
X159333333Y-96857142D01*
X159380952Y-96904761D01*
X159476190Y-96952380D01*
X159666666Y-96952380D01*
X159761904Y-96904761D01*
X159809523Y-96857142D01*
X159857142Y-96761904D01*
X159857142Y-95952380D01*
X160333333Y-96952380D02*
X160333333Y-95952380D01*
X160904761Y-96952380D01*
X160904761Y-95952380D01*
X162095238Y-95904761D02*
X161238095Y-97190476D01*
X162380952Y-96904761D02*
X162523809Y-96952380D01*
X162761904Y-96952380D01*
X162857142Y-96904761D01*
X162904761Y-96857142D01*
X162952380Y-96761904D01*
X162952380Y-96666666D01*
X162904761Y-96571428D01*
X162857142Y-96523809D01*
X162761904Y-96476190D01*
X162571428Y-96428571D01*
X162476190Y-96380952D01*
X162428571Y-96333333D01*
X162380952Y-96238095D01*
X162380952Y-96142857D01*
X162428571Y-96047619D01*
X162476190Y-96000000D01*
X162571428Y-95952380D01*
X162809523Y-95952380D01*
X162952380Y-96000000D01*
X163238095Y-95952380D02*
X163809523Y-95952380D01*
X163523809Y-96952380D02*
X163523809Y-95952380D01*
X164333333Y-95952380D02*
X164523809Y-95952380D01*
X164619047Y-96000000D01*
X164714285Y-96095238D01*
X164761904Y-96285714D01*
X164761904Y-96619047D01*
X164714285Y-96809523D01*
X164619047Y-96904761D01*
X164523809Y-96952380D01*
X164333333Y-96952380D01*
X164238095Y-96904761D01*
X164142857Y-96809523D01*
X164095238Y-96619047D01*
X164095238Y-96285714D01*
X164142857Y-96095238D01*
X164238095Y-96000000D01*
X164333333Y-95952380D01*
X165190476Y-96952380D02*
X165190476Y-95952380D01*
X165571428Y-95952380D01*
X165666666Y-96000000D01*
X165714285Y-96047619D01*
X165761904Y-96142857D01*
X165761904Y-96285714D01*
X165714285Y-96380952D01*
X165666666Y-96428571D01*
X165571428Y-96476190D01*
X165190476Y-96476190D01*
X133738095Y-88037380D02*
X133738095Y-87037380D01*
X134119047Y-87037380D01*
X134214285Y-87085000D01*
X134261904Y-87132619D01*
X134309523Y-87227857D01*
X134309523Y-87370714D01*
X134261904Y-87465952D01*
X134214285Y-87513571D01*
X134119047Y-87561190D01*
X133738095Y-87561190D01*
X134309523Y-89647380D02*
X133976190Y-89171190D01*
X133738095Y-89647380D02*
X133738095Y-88647380D01*
X134119047Y-88647380D01*
X134214285Y-88695000D01*
X134261904Y-88742619D01*
X134309523Y-88837857D01*
X134309523Y-88980714D01*
X134261904Y-89075952D01*
X134214285Y-89123571D01*
X134119047Y-89171190D01*
X133738095Y-89171190D01*
X133904761Y-90257380D02*
X134095238Y-90257380D01*
X134190476Y-90305000D01*
X134285714Y-90400238D01*
X134333333Y-90590714D01*
X134333333Y-90924047D01*
X134285714Y-91114523D01*
X134190476Y-91209761D01*
X134095238Y-91257380D01*
X133904761Y-91257380D01*
X133809523Y-91209761D01*
X133714285Y-91114523D01*
X133666666Y-90924047D01*
X133666666Y-90590714D01*
X133714285Y-90400238D01*
X133809523Y-90305000D01*
X133904761Y-90257380D01*
X134261904Y-91915000D02*
X134166666Y-91867380D01*
X134023809Y-91867380D01*
X133880952Y-91915000D01*
X133785714Y-92010238D01*
X133738095Y-92105476D01*
X133690476Y-92295952D01*
X133690476Y-92438809D01*
X133738095Y-92629285D01*
X133785714Y-92724523D01*
X133880952Y-92819761D01*
X134023809Y-92867380D01*
X134119047Y-92867380D01*
X134261904Y-92819761D01*
X134309523Y-92772142D01*
X134309523Y-92438809D01*
X134119047Y-92438809D01*
D11*
X108642857Y-93678571D02*
X109571428Y-93678571D01*
X109071428Y-94250000D01*
X109285714Y-94250000D01*
X109428571Y-94321428D01*
X109500000Y-94392857D01*
X109571428Y-94535714D01*
X109571428Y-94892857D01*
X109500000Y-95035714D01*
X109428571Y-95107142D01*
X109285714Y-95178571D01*
X108857142Y-95178571D01*
X108714285Y-95107142D01*
X108642857Y-95035714D01*
X110000000Y-93678571D02*
X110500000Y-95178571D01*
X111000000Y-93678571D01*
X111357142Y-93678571D02*
X112285714Y-93678571D01*
X111785714Y-94250000D01*
X112000000Y-94250000D01*
X112142857Y-94321428D01*
X112214285Y-94392857D01*
X112285714Y-94535714D01*
X112285714Y-94892857D01*
X112214285Y-95035714D01*
X112142857Y-95107142D01*
X112000000Y-95178571D01*
X111571428Y-95178571D01*
X111428571Y-95107142D01*
X111357142Y-95035714D01*
X125767857Y-82178571D02*
X125267857Y-81464285D01*
X124910714Y-82178571D02*
X124910714Y-80678571D01*
X125482142Y-80678571D01*
X125625000Y-80750000D01*
X125696428Y-80821428D01*
X125767857Y-80964285D01*
X125767857Y-81178571D01*
X125696428Y-81321428D01*
X125625000Y-81392857D01*
X125482142Y-81464285D01*
X124910714Y-81464285D01*
X126410714Y-80678571D02*
X126410714Y-81892857D01*
X126482142Y-82035714D01*
X126553571Y-82107142D01*
X126696428Y-82178571D01*
X126982142Y-82178571D01*
X127125000Y-82107142D01*
X127196428Y-82035714D01*
X127267857Y-81892857D01*
X127267857Y-80678571D01*
X127982142Y-82178571D02*
X127982142Y-80678571D01*
X128839285Y-82178571D01*
X128839285Y-80678571D01*
D10*
%TO.C,C3*%
X94833333Y-77857142D02*
X94785714Y-77904761D01*
X94642857Y-77952380D01*
X94547619Y-77952380D01*
X94404761Y-77904761D01*
X94309523Y-77809523D01*
X94261904Y-77714285D01*
X94214285Y-77523809D01*
X94214285Y-77380952D01*
X94261904Y-77190476D01*
X94309523Y-77095238D01*
X94404761Y-77000000D01*
X94547619Y-76952380D01*
X94642857Y-76952380D01*
X94785714Y-77000000D01*
X94833333Y-77047619D01*
X95166666Y-76952380D02*
X95785714Y-76952380D01*
X95452380Y-77333333D01*
X95595238Y-77333333D01*
X95690476Y-77380952D01*
X95738095Y-77428571D01*
X95785714Y-77523809D01*
X95785714Y-77761904D01*
X95738095Y-77857142D01*
X95690476Y-77904761D01*
X95595238Y-77952380D01*
X95309523Y-77952380D01*
X95214285Y-77904761D01*
X95166666Y-77857142D01*
%TO.C,R10*%
X115107142Y-67102380D02*
X114773809Y-66626190D01*
X114535714Y-67102380D02*
X114535714Y-66102380D01*
X114916666Y-66102380D01*
X115011904Y-66150000D01*
X115059523Y-66197619D01*
X115107142Y-66292857D01*
X115107142Y-66435714D01*
X115059523Y-66530952D01*
X115011904Y-66578571D01*
X114916666Y-66626190D01*
X114535714Y-66626190D01*
X116059523Y-67102380D02*
X115488095Y-67102380D01*
X115773809Y-67102380D02*
X115773809Y-66102380D01*
X115678571Y-66245238D01*
X115583333Y-66340476D01*
X115488095Y-66388095D01*
X116678571Y-66102380D02*
X116773809Y-66102380D01*
X116869047Y-66150000D01*
X116916666Y-66197619D01*
X116964285Y-66292857D01*
X117011904Y-66483333D01*
X117011904Y-66721428D01*
X116964285Y-66911904D01*
X116916666Y-67007142D01*
X116869047Y-67054761D01*
X116773809Y-67102380D01*
X116678571Y-67102380D01*
X116583333Y-67054761D01*
X116535714Y-67007142D01*
X116488095Y-66911904D01*
X116440476Y-66721428D01*
X116440476Y-66483333D01*
X116488095Y-66292857D01*
X116535714Y-66197619D01*
X116583333Y-66150000D01*
X116678571Y-66102380D01*
%TO.C,R3*%
X137202380Y-61666666D02*
X136726190Y-62000000D01*
X137202380Y-62238095D02*
X136202380Y-62238095D01*
X136202380Y-61857142D01*
X136250000Y-61761904D01*
X136297619Y-61714285D01*
X136392857Y-61666666D01*
X136535714Y-61666666D01*
X136630952Y-61714285D01*
X136678571Y-61761904D01*
X136726190Y-61857142D01*
X136726190Y-62238095D01*
X136202380Y-61333333D02*
X136202380Y-60714285D01*
X136583333Y-61047619D01*
X136583333Y-60904761D01*
X136630952Y-60809523D01*
X136678571Y-60761904D01*
X136773809Y-60714285D01*
X137011904Y-60714285D01*
X137107142Y-60761904D01*
X137154761Y-60809523D01*
X137202380Y-60904761D01*
X137202380Y-61190476D01*
X137154761Y-61285714D01*
X137107142Y-61333333D01*
%TO.C,R4*%
X110333333Y-74302380D02*
X110000000Y-73826190D01*
X109761904Y-74302380D02*
X109761904Y-73302380D01*
X110142857Y-73302380D01*
X110238095Y-73350000D01*
X110285714Y-73397619D01*
X110333333Y-73492857D01*
X110333333Y-73635714D01*
X110285714Y-73730952D01*
X110238095Y-73778571D01*
X110142857Y-73826190D01*
X109761904Y-73826190D01*
X111190476Y-73635714D02*
X111190476Y-74302380D01*
X110952380Y-73254761D02*
X110714285Y-73969047D01*
X111333333Y-73969047D01*
%TO.C,R12*%
X123107142Y-56952380D02*
X122773809Y-56476190D01*
X122535714Y-56952380D02*
X122535714Y-55952380D01*
X122916666Y-55952380D01*
X123011904Y-56000000D01*
X123059523Y-56047619D01*
X123107142Y-56142857D01*
X123107142Y-56285714D01*
X123059523Y-56380952D01*
X123011904Y-56428571D01*
X122916666Y-56476190D01*
X122535714Y-56476190D01*
X124059523Y-56952380D02*
X123488095Y-56952380D01*
X123773809Y-56952380D02*
X123773809Y-55952380D01*
X123678571Y-56095238D01*
X123583333Y-56190476D01*
X123488095Y-56238095D01*
X124440476Y-56047619D02*
X124488095Y-56000000D01*
X124583333Y-55952380D01*
X124821428Y-55952380D01*
X124916666Y-56000000D01*
X124964285Y-56047619D01*
X125011904Y-56142857D01*
X125011904Y-56238095D01*
X124964285Y-56380952D01*
X124392857Y-56952380D01*
X125011904Y-56952380D01*
%TO.C,R1*%
X118333333Y-74302380D02*
X118000000Y-73826190D01*
X117761904Y-74302380D02*
X117761904Y-73302380D01*
X118142857Y-73302380D01*
X118238095Y-73350000D01*
X118285714Y-73397619D01*
X118333333Y-73492857D01*
X118333333Y-73635714D01*
X118285714Y-73730952D01*
X118238095Y-73778571D01*
X118142857Y-73826190D01*
X117761904Y-73826190D01*
X119285714Y-74302380D02*
X118714285Y-74302380D01*
X119000000Y-74302380D02*
X119000000Y-73302380D01*
X118904761Y-73445238D01*
X118809523Y-73540476D01*
X118714285Y-73588095D01*
%TO.C,RTHERM1*%
X118904761Y-54102380D02*
X118571428Y-53626190D01*
X118333333Y-54102380D02*
X118333333Y-53102380D01*
X118714285Y-53102380D01*
X118809523Y-53150000D01*
X118857142Y-53197619D01*
X118904761Y-53292857D01*
X118904761Y-53435714D01*
X118857142Y-53530952D01*
X118809523Y-53578571D01*
X118714285Y-53626190D01*
X118333333Y-53626190D01*
X119190476Y-53102380D02*
X119761904Y-53102380D01*
X119476190Y-54102380D02*
X119476190Y-53102380D01*
X120095238Y-54102380D02*
X120095238Y-53102380D01*
X120095238Y-53578571D02*
X120666666Y-53578571D01*
X120666666Y-54102380D02*
X120666666Y-53102380D01*
X121142857Y-53578571D02*
X121476190Y-53578571D01*
X121619047Y-54102380D02*
X121142857Y-54102380D01*
X121142857Y-53102380D01*
X121619047Y-53102380D01*
X122619047Y-54102380D02*
X122285714Y-53626190D01*
X122047619Y-54102380D02*
X122047619Y-53102380D01*
X122428571Y-53102380D01*
X122523809Y-53150000D01*
X122571428Y-53197619D01*
X122619047Y-53292857D01*
X122619047Y-53435714D01*
X122571428Y-53530952D01*
X122523809Y-53578571D01*
X122428571Y-53626190D01*
X122047619Y-53626190D01*
X123047619Y-54102380D02*
X123047619Y-53102380D01*
X123380952Y-53816666D01*
X123714285Y-53102380D01*
X123714285Y-54102380D01*
X124714285Y-54102380D02*
X124142857Y-54102380D01*
X124428571Y-54102380D02*
X124428571Y-53102380D01*
X124333333Y-53245238D01*
X124238095Y-53340476D01*
X124142857Y-53388095D01*
%TO.C,Q1*%
X102404761Y-72447619D02*
X102309523Y-72400000D01*
X102214285Y-72304761D01*
X102071428Y-72161904D01*
X101976190Y-72114285D01*
X101880952Y-72114285D01*
X101928571Y-72352380D02*
X101833333Y-72304761D01*
X101738095Y-72209523D01*
X101690476Y-72019047D01*
X101690476Y-71685714D01*
X101738095Y-71495238D01*
X101833333Y-71400000D01*
X101928571Y-71352380D01*
X102119047Y-71352380D01*
X102214285Y-71400000D01*
X102309523Y-71495238D01*
X102357142Y-71685714D01*
X102357142Y-72019047D01*
X102309523Y-72209523D01*
X102214285Y-72304761D01*
X102119047Y-72352380D01*
X101928571Y-72352380D01*
X103309523Y-72352380D02*
X102738095Y-72352380D01*
X103023809Y-72352380D02*
X103023809Y-71352380D01*
X102928571Y-71495238D01*
X102833333Y-71590476D01*
X102738095Y-71638095D01*
%TO.C,R15*%
X126452380Y-64142857D02*
X125976190Y-64476190D01*
X126452380Y-64714285D02*
X125452380Y-64714285D01*
X125452380Y-64333333D01*
X125500000Y-64238095D01*
X125547619Y-64190476D01*
X125642857Y-64142857D01*
X125785714Y-64142857D01*
X125880952Y-64190476D01*
X125928571Y-64238095D01*
X125976190Y-64333333D01*
X125976190Y-64714285D01*
X126452380Y-63190476D02*
X126452380Y-63761904D01*
X126452380Y-63476190D02*
X125452380Y-63476190D01*
X125595238Y-63571428D01*
X125690476Y-63666666D01*
X125738095Y-63761904D01*
X125452380Y-62285714D02*
X125452380Y-62761904D01*
X125928571Y-62809523D01*
X125880952Y-62761904D01*
X125833333Y-62666666D01*
X125833333Y-62428571D01*
X125880952Y-62333333D01*
X125928571Y-62285714D01*
X126023809Y-62238095D01*
X126261904Y-62238095D01*
X126357142Y-62285714D01*
X126404761Y-62333333D01*
X126452380Y-62428571D01*
X126452380Y-62666666D01*
X126404761Y-62761904D01*
X126357142Y-62809523D01*
%TO.C,R13*%
X125857142Y-101802380D02*
X125523809Y-101326190D01*
X125285714Y-101802380D02*
X125285714Y-100802380D01*
X125666666Y-100802380D01*
X125761904Y-100850000D01*
X125809523Y-100897619D01*
X125857142Y-100992857D01*
X125857142Y-101135714D01*
X125809523Y-101230952D01*
X125761904Y-101278571D01*
X125666666Y-101326190D01*
X125285714Y-101326190D01*
X126809523Y-101802380D02*
X126238095Y-101802380D01*
X126523809Y-101802380D02*
X126523809Y-100802380D01*
X126428571Y-100945238D01*
X126333333Y-101040476D01*
X126238095Y-101088095D01*
X127142857Y-100802380D02*
X127761904Y-100802380D01*
X127428571Y-101183333D01*
X127571428Y-101183333D01*
X127666666Y-101230952D01*
X127714285Y-101278571D01*
X127761904Y-101373809D01*
X127761904Y-101611904D01*
X127714285Y-101707142D01*
X127666666Y-101754761D01*
X127571428Y-101802380D01*
X127285714Y-101802380D01*
X127190476Y-101754761D01*
X127142857Y-101707142D01*
%TO.C,R2*%
X131302380Y-61666666D02*
X130826190Y-62000000D01*
X131302380Y-62238095D02*
X130302380Y-62238095D01*
X130302380Y-61857142D01*
X130350000Y-61761904D01*
X130397619Y-61714285D01*
X130492857Y-61666666D01*
X130635714Y-61666666D01*
X130730952Y-61714285D01*
X130778571Y-61761904D01*
X130826190Y-61857142D01*
X130826190Y-62238095D01*
X130397619Y-61285714D02*
X130350000Y-61238095D01*
X130302380Y-61142857D01*
X130302380Y-60904761D01*
X130350000Y-60809523D01*
X130397619Y-60761904D01*
X130492857Y-60714285D01*
X130588095Y-60714285D01*
X130730952Y-60761904D01*
X131302380Y-61333333D01*
X131302380Y-60714285D01*
%TO.C,R9*%
X115333333Y-63702380D02*
X115000000Y-63226190D01*
X114761904Y-63702380D02*
X114761904Y-62702380D01*
X115142857Y-62702380D01*
X115238095Y-62750000D01*
X115285714Y-62797619D01*
X115333333Y-62892857D01*
X115333333Y-63035714D01*
X115285714Y-63130952D01*
X115238095Y-63178571D01*
X115142857Y-63226190D01*
X114761904Y-63226190D01*
X115809523Y-63702380D02*
X116000000Y-63702380D01*
X116095238Y-63654761D01*
X116142857Y-63607142D01*
X116238095Y-63464285D01*
X116285714Y-63273809D01*
X116285714Y-62892857D01*
X116238095Y-62797619D01*
X116190476Y-62750000D01*
X116095238Y-62702380D01*
X115904761Y-62702380D01*
X115809523Y-62750000D01*
X115761904Y-62797619D01*
X115714285Y-62892857D01*
X115714285Y-63130952D01*
X115761904Y-63226190D01*
X115809523Y-63273809D01*
X115904761Y-63321428D01*
X116095238Y-63321428D01*
X116190476Y-63273809D01*
X116238095Y-63226190D01*
X116285714Y-63130952D01*
%TO.C,J1*%
X77666666Y-67952380D02*
X77666666Y-68666666D01*
X77619047Y-68809523D01*
X77523809Y-68904761D01*
X77380952Y-68952380D01*
X77285714Y-68952380D01*
X78666666Y-68952380D02*
X78095238Y-68952380D01*
X78380952Y-68952380D02*
X78380952Y-67952380D01*
X78285714Y-68095238D01*
X78190476Y-68190476D01*
X78095238Y-68238095D01*
%TO.C,C2*%
X83333333Y-77857142D02*
X83285714Y-77904761D01*
X83142857Y-77952380D01*
X83047619Y-77952380D01*
X82904761Y-77904761D01*
X82809523Y-77809523D01*
X82761904Y-77714285D01*
X82714285Y-77523809D01*
X82714285Y-77380952D01*
X82761904Y-77190476D01*
X82809523Y-77095238D01*
X82904761Y-77000000D01*
X83047619Y-76952380D01*
X83142857Y-76952380D01*
X83285714Y-77000000D01*
X83333333Y-77047619D01*
X83714285Y-77047619D02*
X83761904Y-77000000D01*
X83857142Y-76952380D01*
X84095238Y-76952380D01*
X84190476Y-77000000D01*
X84238095Y-77047619D01*
X84285714Y-77142857D01*
X84285714Y-77238095D01*
X84238095Y-77380952D01*
X83666666Y-77952380D01*
X84285714Y-77952380D01*
%TO.C,U5*%
X127238095Y-56202380D02*
X127238095Y-57011904D01*
X127285714Y-57107142D01*
X127333333Y-57154761D01*
X127428571Y-57202380D01*
X127619047Y-57202380D01*
X127714285Y-57154761D01*
X127761904Y-57107142D01*
X127809523Y-57011904D01*
X127809523Y-56202380D01*
X128761904Y-56202380D02*
X128285714Y-56202380D01*
X128238095Y-56678571D01*
X128285714Y-56630952D01*
X128380952Y-56583333D01*
X128619047Y-56583333D01*
X128714285Y-56630952D01*
X128761904Y-56678571D01*
X128809523Y-56773809D01*
X128809523Y-57011904D01*
X128761904Y-57107142D01*
X128714285Y-57154761D01*
X128619047Y-57202380D01*
X128380952Y-57202380D01*
X128285714Y-57154761D01*
X128238095Y-57107142D01*
%TO.C,C5*%
X120333333Y-67357142D02*
X120285714Y-67404761D01*
X120142857Y-67452380D01*
X120047619Y-67452380D01*
X119904761Y-67404761D01*
X119809523Y-67309523D01*
X119761904Y-67214285D01*
X119714285Y-67023809D01*
X119714285Y-66880952D01*
X119761904Y-66690476D01*
X119809523Y-66595238D01*
X119904761Y-66500000D01*
X120047619Y-66452380D01*
X120142857Y-66452380D01*
X120285714Y-66500000D01*
X120333333Y-66547619D01*
X121238095Y-66452380D02*
X120761904Y-66452380D01*
X120714285Y-66928571D01*
X120761904Y-66880952D01*
X120857142Y-66833333D01*
X121095238Y-66833333D01*
X121190476Y-66880952D01*
X121238095Y-66928571D01*
X121285714Y-67023809D01*
X121285714Y-67261904D01*
X121238095Y-67357142D01*
X121190476Y-67404761D01*
X121095238Y-67452380D01*
X120857142Y-67452380D01*
X120761904Y-67404761D01*
X120714285Y-67357142D01*
%TO.C,R8*%
X118333333Y-101802380D02*
X118000000Y-101326190D01*
X117761904Y-101802380D02*
X117761904Y-100802380D01*
X118142857Y-100802380D01*
X118238095Y-100850000D01*
X118285714Y-100897619D01*
X118333333Y-100992857D01*
X118333333Y-101135714D01*
X118285714Y-101230952D01*
X118238095Y-101278571D01*
X118142857Y-101326190D01*
X117761904Y-101326190D01*
X118904761Y-101230952D02*
X118809523Y-101183333D01*
X118761904Y-101135714D01*
X118714285Y-101040476D01*
X118714285Y-100992857D01*
X118761904Y-100897619D01*
X118809523Y-100850000D01*
X118904761Y-100802380D01*
X119095238Y-100802380D01*
X119190476Y-100850000D01*
X119238095Y-100897619D01*
X119285714Y-100992857D01*
X119285714Y-101040476D01*
X119238095Y-101135714D01*
X119190476Y-101183333D01*
X119095238Y-101230952D01*
X118904761Y-101230952D01*
X118809523Y-101278571D01*
X118761904Y-101326190D01*
X118714285Y-101421428D01*
X118714285Y-101611904D01*
X118761904Y-101707142D01*
X118809523Y-101754761D01*
X118904761Y-101802380D01*
X119095238Y-101802380D01*
X119190476Y-101754761D01*
X119238095Y-101707142D01*
X119285714Y-101611904D01*
X119285714Y-101421428D01*
X119238095Y-101326190D01*
X119190476Y-101278571D01*
X119095238Y-101230952D01*
%TO.C,U2*%
X112852380Y-61761904D02*
X113661904Y-61761904D01*
X113757142Y-61714285D01*
X113804761Y-61666666D01*
X113852380Y-61571428D01*
X113852380Y-61380952D01*
X113804761Y-61285714D01*
X113757142Y-61238095D01*
X113661904Y-61190476D01*
X112852380Y-61190476D01*
X112947619Y-60761904D02*
X112900000Y-60714285D01*
X112852380Y-60619047D01*
X112852380Y-60380952D01*
X112900000Y-60285714D01*
X112947619Y-60238095D01*
X113042857Y-60190476D01*
X113138095Y-60190476D01*
X113280952Y-60238095D01*
X113852380Y-60809523D01*
X113852380Y-60190476D01*
%TO.C,R6*%
X126833333Y-74302380D02*
X126500000Y-73826190D01*
X126261904Y-74302380D02*
X126261904Y-73302380D01*
X126642857Y-73302380D01*
X126738095Y-73350000D01*
X126785714Y-73397619D01*
X126833333Y-73492857D01*
X126833333Y-73635714D01*
X126785714Y-73730952D01*
X126738095Y-73778571D01*
X126642857Y-73826190D01*
X126261904Y-73826190D01*
X127690476Y-73302380D02*
X127500000Y-73302380D01*
X127404761Y-73350000D01*
X127357142Y-73397619D01*
X127261904Y-73540476D01*
X127214285Y-73730952D01*
X127214285Y-74111904D01*
X127261904Y-74207142D01*
X127309523Y-74254761D01*
X127404761Y-74302380D01*
X127595238Y-74302380D01*
X127690476Y-74254761D01*
X127738095Y-74207142D01*
X127785714Y-74111904D01*
X127785714Y-73873809D01*
X127738095Y-73778571D01*
X127690476Y-73730952D01*
X127595238Y-73683333D01*
X127404761Y-73683333D01*
X127309523Y-73730952D01*
X127261904Y-73778571D01*
X127214285Y-73873809D01*
%TO.C,U3*%
X119238095Y-58952380D02*
X119238095Y-59761904D01*
X119285714Y-59857142D01*
X119333333Y-59904761D01*
X119428571Y-59952380D01*
X119619047Y-59952380D01*
X119714285Y-59904761D01*
X119761904Y-59857142D01*
X119809523Y-59761904D01*
X119809523Y-58952380D01*
X120190476Y-58952380D02*
X120809523Y-58952380D01*
X120476190Y-59333333D01*
X120619047Y-59333333D01*
X120714285Y-59380952D01*
X120761904Y-59428571D01*
X120809523Y-59523809D01*
X120809523Y-59761904D01*
X120761904Y-59857142D01*
X120714285Y-59904761D01*
X120619047Y-59952380D01*
X120333333Y-59952380D01*
X120238095Y-59904761D01*
X120190476Y-59857142D01*
%TO.C,U1*%
X169238095Y-70452380D02*
X169238095Y-71261904D01*
X169285714Y-71357142D01*
X169333333Y-71404761D01*
X169428571Y-71452380D01*
X169619047Y-71452380D01*
X169714285Y-71404761D01*
X169761904Y-71357142D01*
X169809523Y-71261904D01*
X169809523Y-70452380D01*
X170809523Y-71452380D02*
X170238095Y-71452380D01*
X170523809Y-71452380D02*
X170523809Y-70452380D01*
X170428571Y-70595238D01*
X170333333Y-70690476D01*
X170238095Y-70738095D01*
%TO.C,U6*%
X99382380Y-103261904D02*
X100191904Y-103261904D01*
X100287142Y-103214285D01*
X100334761Y-103166666D01*
X100382380Y-103071428D01*
X100382380Y-102880952D01*
X100334761Y-102785714D01*
X100287142Y-102738095D01*
X100191904Y-102690476D01*
X99382380Y-102690476D01*
X99382380Y-101785714D02*
X99382380Y-101976190D01*
X99430000Y-102071428D01*
X99477619Y-102119047D01*
X99620476Y-102214285D01*
X99810952Y-102261904D01*
X100191904Y-102261904D01*
X100287142Y-102214285D01*
X100334761Y-102166666D01*
X100382380Y-102071428D01*
X100382380Y-101880952D01*
X100334761Y-101785714D01*
X100287142Y-101738095D01*
X100191904Y-101690476D01*
X99953809Y-101690476D01*
X99858571Y-101738095D01*
X99810952Y-101785714D01*
X99763333Y-101880952D01*
X99763333Y-102071428D01*
X99810952Y-102166666D01*
X99858571Y-102214285D01*
X99953809Y-102261904D01*
%TO.C,C1*%
X88857142Y-64666666D02*
X88904761Y-64714285D01*
X88952380Y-64857142D01*
X88952380Y-64952380D01*
X88904761Y-65095238D01*
X88809523Y-65190476D01*
X88714285Y-65238095D01*
X88523809Y-65285714D01*
X88380952Y-65285714D01*
X88190476Y-65238095D01*
X88095238Y-65190476D01*
X88000000Y-65095238D01*
X87952380Y-64952380D01*
X87952380Y-64857142D01*
X88000000Y-64714285D01*
X88047619Y-64666666D01*
X88952380Y-63714285D02*
X88952380Y-64285714D01*
X88952380Y-64000000D02*
X87952380Y-64000000D01*
X88095238Y-64095238D01*
X88190476Y-64190476D01*
X88238095Y-64285714D01*
%TO.C,D1*%
X90261904Y-61952380D02*
X90261904Y-60952380D01*
X90500000Y-60952380D01*
X90642857Y-61000000D01*
X90738095Y-61095238D01*
X90785714Y-61190476D01*
X90833333Y-61380952D01*
X90833333Y-61523809D01*
X90785714Y-61714285D01*
X90738095Y-61809523D01*
X90642857Y-61904761D01*
X90500000Y-61952380D01*
X90261904Y-61952380D01*
X91785714Y-61952380D02*
X91214285Y-61952380D01*
X91500000Y-61952380D02*
X91500000Y-60952380D01*
X91404761Y-61095238D01*
X91309523Y-61190476D01*
X91214285Y-61238095D01*
%TO.C,R7*%
X113083333Y-54802380D02*
X112750000Y-54326190D01*
X112511904Y-54802380D02*
X112511904Y-53802380D01*
X112892857Y-53802380D01*
X112988095Y-53850000D01*
X113035714Y-53897619D01*
X113083333Y-53992857D01*
X113083333Y-54135714D01*
X113035714Y-54230952D01*
X112988095Y-54278571D01*
X112892857Y-54326190D01*
X112511904Y-54326190D01*
X113416666Y-53802380D02*
X114083333Y-53802380D01*
X113654761Y-54802380D01*
%TO.C,U4*%
X86738095Y-66712380D02*
X86738095Y-67521904D01*
X86785714Y-67617142D01*
X86833333Y-67664761D01*
X86928571Y-67712380D01*
X87119047Y-67712380D01*
X87214285Y-67664761D01*
X87261904Y-67617142D01*
X87309523Y-67521904D01*
X87309523Y-66712380D01*
X88214285Y-67045714D02*
X88214285Y-67712380D01*
X87976190Y-66664761D02*
X87738095Y-67379047D01*
X88357142Y-67379047D01*
%TO.C,R5*%
X110333333Y-101802380D02*
X110000000Y-101326190D01*
X109761904Y-101802380D02*
X109761904Y-100802380D01*
X110142857Y-100802380D01*
X110238095Y-100850000D01*
X110285714Y-100897619D01*
X110333333Y-100992857D01*
X110333333Y-101135714D01*
X110285714Y-101230952D01*
X110238095Y-101278571D01*
X110142857Y-101326190D01*
X109761904Y-101326190D01*
X111238095Y-100802380D02*
X110761904Y-100802380D01*
X110714285Y-101278571D01*
X110761904Y-101230952D01*
X110857142Y-101183333D01*
X111095238Y-101183333D01*
X111190476Y-101230952D01*
X111238095Y-101278571D01*
X111285714Y-101373809D01*
X111285714Y-101611904D01*
X111238095Y-101707142D01*
X111190476Y-101754761D01*
X111095238Y-101802380D01*
X110857142Y-101802380D01*
X110761904Y-101754761D01*
X110714285Y-101707142D01*
%TO.C,R14*%
X102702380Y-101642857D02*
X102226190Y-101976190D01*
X102702380Y-102214285D02*
X101702380Y-102214285D01*
X101702380Y-101833333D01*
X101750000Y-101738095D01*
X101797619Y-101690476D01*
X101892857Y-101642857D01*
X102035714Y-101642857D01*
X102130952Y-101690476D01*
X102178571Y-101738095D01*
X102226190Y-101833333D01*
X102226190Y-102214285D01*
X102702380Y-100690476D02*
X102702380Y-101261904D01*
X102702380Y-100976190D02*
X101702380Y-100976190D01*
X101845238Y-101071428D01*
X101940476Y-101166666D01*
X101988095Y-101261904D01*
X102035714Y-99833333D02*
X102702380Y-99833333D01*
X101654761Y-100071428D02*
X102369047Y-100309523D01*
X102369047Y-99690476D01*
%TO.C,C4*%
X103833333Y-65107142D02*
X103785714Y-65154761D01*
X103642857Y-65202380D01*
X103547619Y-65202380D01*
X103404761Y-65154761D01*
X103309523Y-65059523D01*
X103261904Y-64964285D01*
X103214285Y-64773809D01*
X103214285Y-64630952D01*
X103261904Y-64440476D01*
X103309523Y-64345238D01*
X103404761Y-64250000D01*
X103547619Y-64202380D01*
X103642857Y-64202380D01*
X103785714Y-64250000D01*
X103833333Y-64297619D01*
X104690476Y-64535714D02*
X104690476Y-65202380D01*
X104452380Y-64154761D02*
X104214285Y-64869047D01*
X104833333Y-64869047D01*
%TO.C,R11*%
X108356859Y-51952580D02*
X108023379Y-51476179D01*
X107785178Y-51952580D02*
X107785178Y-50952139D01*
X108166299Y-50952139D01*
X108261579Y-50999779D01*
X108309219Y-51047419D01*
X108356859Y-51142699D01*
X108356859Y-51285619D01*
X108309219Y-51380899D01*
X108261579Y-51428539D01*
X108166299Y-51476179D01*
X107785178Y-51476179D01*
X109309660Y-51952580D02*
X108737979Y-51952580D01*
X109023820Y-51952580D02*
X109023820Y-50952139D01*
X108928539Y-51095059D01*
X108833259Y-51190339D01*
X108737979Y-51237979D01*
X110262461Y-51952580D02*
X109690780Y-51952580D01*
X109976620Y-51952580D02*
X109976620Y-50952139D01*
X109881340Y-51095059D01*
X109786060Y-51190339D01*
X109690780Y-51237979D01*
D12*
%TO.C,C3*%
X90738748Y-76765000D02*
X91261252Y-76765000D01*
X90738748Y-78235000D02*
X91261252Y-78235000D01*
%TO.C,R10*%
X115977064Y-64265000D02*
X115522936Y-64265000D01*
X115977064Y-65735000D02*
X115522936Y-65735000D01*
%TO.C,SWINC1*%
X158770000Y-75270000D02*
X165230000Y-75270000D01*
X158770000Y-75300000D02*
X158770000Y-75270000D01*
X165230000Y-75270000D02*
X165230000Y-75300000D01*
X158770000Y-81730000D02*
X158770000Y-81700000D01*
X158770000Y-81730000D02*
X165230000Y-81730000D01*
X158770000Y-77200000D02*
X158770000Y-79800000D01*
X165230000Y-77200000D02*
X165230000Y-79800000D01*
X165230000Y-81730000D02*
X165230000Y-81700000D01*
%TO.C,R3*%
X134265000Y-61727064D02*
X134265000Y-61272936D01*
X135735000Y-61727064D02*
X135735000Y-61272936D01*
%TO.C,D_HEAT1*%
X116965000Y-92735000D02*
X119425000Y-92735000D01*
X119425000Y-91265000D02*
X116965000Y-91265000D01*
X116965000Y-91265000D02*
X116965000Y-92735000D01*
%TO.C,R4*%
X110272936Y-74765000D02*
X110727064Y-74765000D01*
X110272936Y-76235000D02*
X110727064Y-76235000D01*
%TO.C,R12*%
X125485000Y-59227064D02*
X125485000Y-58772936D01*
X124015000Y-59227064D02*
X124015000Y-58772936D01*
%TO.C,R1*%
X118272936Y-76235000D02*
X118727064Y-76235000D01*
X118272936Y-74765000D02*
X118727064Y-74765000D01*
%TO.C,SWRST1*%
X144730000Y-97270000D02*
X144730000Y-97300000D01*
X144730000Y-99200000D02*
X144730000Y-101800000D01*
X138270000Y-99200000D02*
X138270000Y-101800000D01*
X144730000Y-103730000D02*
X144730000Y-103700000D01*
X138270000Y-97300000D02*
X138270000Y-97270000D01*
X138270000Y-97270000D02*
X144730000Y-97270000D01*
X138270000Y-103730000D02*
X138270000Y-103700000D01*
X138270000Y-103730000D02*
X144730000Y-103730000D01*
%TO.C,RTHERM1*%
X121727064Y-51265000D02*
X121272936Y-51265000D01*
X121727064Y-52735000D02*
X121272936Y-52735000D01*
%TO.C,Q1*%
X102500000Y-71060000D02*
X100550000Y-71060000D01*
X102500000Y-65940000D02*
X100550000Y-65940000D01*
X102500000Y-65940000D02*
X104450000Y-65940000D01*
X102500000Y-71060000D02*
X105950000Y-71060000D01*
%TO.C,SWMODE1*%
X145910000Y-92057500D02*
X137090000Y-92057500D01*
X137090000Y-92057500D02*
X137090000Y-91747500D01*
X137090000Y-87847500D02*
X137090000Y-87537500D01*
X145910000Y-92057500D02*
X145910000Y-91747500D01*
X139000000Y-86837500D02*
X139500000Y-87337500D01*
X140000000Y-86837500D02*
X139000000Y-86837500D01*
X137090000Y-87537500D02*
X145910000Y-87537500D01*
X145910000Y-87537500D02*
X145910000Y-87847500D01*
X139500000Y-87337500D02*
X140000000Y-86837500D01*
%TO.C,R15*%
X128735000Y-63272936D02*
X128735000Y-63727064D01*
X127265000Y-63272936D02*
X127265000Y-63727064D01*
%TO.C,D_HOT1*%
X119425000Y-83265000D02*
X116965000Y-83265000D01*
X116965000Y-83265000D02*
X116965000Y-84735000D01*
X116965000Y-84735000D02*
X119425000Y-84735000D01*
%TO.C,R13*%
X126272936Y-103735000D02*
X126727064Y-103735000D01*
X126272936Y-102265000D02*
X126727064Y-102265000D01*
%TO.C,R2*%
X133235000Y-61727064D02*
X133235000Y-61272936D01*
X131765000Y-61727064D02*
X131765000Y-61272936D01*
%TO.C,R9*%
X116200000Y-62000000D02*
X114800000Y-62000000D01*
X116900000Y-60700000D02*
X116900000Y-61300000D01*
X114800000Y-60000000D02*
X116200000Y-60000000D01*
X114100000Y-61300000D02*
X114100000Y-60700000D01*
X114800000Y-60000000D02*
G75*
G03*
X114100000Y-60700000I0J-700000D01*
G01*
X116200000Y-62000000D02*
G75*
G03*
X116900000Y-61300000I1J699999D01*
G01*
X114100000Y-61300000D02*
G75*
G03*
X114800000Y-62000000I700000J0D01*
G01*
X116900000Y-60700000D02*
G75*
G03*
X116200000Y-60000000I-699999J1D01*
G01*
%TO.C,J1*%
X83045000Y-59470000D02*
X83045000Y-67150000D01*
X83045000Y-59470000D02*
X85705000Y-59470000D01*
D10*
X79750000Y-62010000D02*
X81750000Y-62010000D01*
D12*
X83045000Y-56870000D02*
X84375000Y-56870000D01*
D10*
X81000000Y-63010000D02*
X81750000Y-62010000D01*
D12*
X83045000Y-67150000D02*
X85705000Y-67150000D01*
D10*
X81000000Y-61010000D02*
X81000000Y-63010000D01*
D12*
X83045000Y-58200000D02*
X83045000Y-56870000D01*
X85705000Y-59470000D02*
X85705000Y-67150000D01*
D10*
X81750000Y-62010000D02*
X81000000Y-61010000D01*
X85875000Y-56760000D02*
X69875000Y-56760000D01*
X69875000Y-56760000D02*
X69875000Y-67260000D01*
X69875000Y-67260000D02*
X85875000Y-67260000D01*
X85875000Y-67260000D02*
X85875000Y-56760000D01*
D12*
%TO.C,C2*%
X86238748Y-76765000D02*
X86761252Y-76765000D01*
X86238748Y-78235000D02*
X86761252Y-78235000D01*
%TO.C,SWDEC1*%
X165230000Y-92730000D02*
X165230000Y-92700000D01*
X158770000Y-86300000D02*
X158770000Y-86270000D01*
X165230000Y-88200000D02*
X165230000Y-90800000D01*
X158770000Y-88200000D02*
X158770000Y-90800000D01*
X165230000Y-86270000D02*
X165230000Y-86300000D01*
X158770000Y-92730000D02*
X158770000Y-92700000D01*
X158770000Y-86270000D02*
X165230000Y-86270000D01*
X158770000Y-92730000D02*
X165230000Y-92730000D01*
%TO.C,U5*%
X128795000Y-55530000D02*
X128795000Y-52870000D01*
X126195000Y-54200000D02*
X126195000Y-52870000D01*
X128795000Y-55530000D02*
X136475000Y-55530000D01*
X126195000Y-52870000D02*
X127525000Y-52870000D01*
X136475000Y-55530000D02*
X136475000Y-52870000D01*
X128795000Y-52870000D02*
X136475000Y-52870000D01*
%TO.C,D_RTD1*%
X125215000Y-92735000D02*
X127675000Y-92735000D01*
X125215000Y-91265000D02*
X125215000Y-92735000D01*
X127675000Y-91265000D02*
X125215000Y-91265000D01*
%TO.C,D_RUN1*%
X125215000Y-84735000D02*
X127675000Y-84735000D01*
X125215000Y-83265000D02*
X125215000Y-84735000D01*
X127675000Y-83265000D02*
X125215000Y-83265000D01*
%TO.C,C5*%
X120238748Y-64265000D02*
X120761252Y-64265000D01*
X120238748Y-65735000D02*
X120761252Y-65735000D01*
%TO.C,R8*%
X118272936Y-103735000D02*
X118727064Y-103735000D01*
X118272936Y-102265000D02*
X118727064Y-102265000D01*
%TO.C,U2*%
X112560000Y-61000000D02*
X112560000Y-57550000D01*
X107440000Y-61000000D02*
X107440000Y-59050000D01*
X112560000Y-61000000D02*
X112560000Y-62950000D01*
X107440000Y-61000000D02*
X107440000Y-62950000D01*
%TO.C,R6*%
X126772936Y-76235000D02*
X127227064Y-76235000D01*
X126772936Y-74765000D02*
X127227064Y-74765000D01*
%TO.C,U3*%
X120300000Y-62660000D02*
X122200000Y-62660000D01*
X121700000Y-60340000D02*
X120300000Y-60340000D01*
D10*
%TO.C,U1*%
X171445000Y-51610000D02*
X150490000Y-51610000D01*
X150490000Y-51610000D02*
X150490000Y-69390000D01*
X150490000Y-69390000D02*
X171445000Y-69390000D01*
X171445000Y-69390000D02*
X171445000Y-51610000D01*
D12*
%TO.C,U6*%
X95890000Y-101170000D02*
X78050000Y-101170000D01*
X98490000Y-102500000D02*
X98490000Y-103830000D01*
X95890000Y-103830000D02*
X78050000Y-103830000D01*
X95890000Y-101170000D02*
X95890000Y-103830000D01*
X98490000Y-103830000D02*
X97160000Y-103830000D01*
X78050000Y-101170000D02*
X78050000Y-103830000D01*
%TO.C,C1*%
X91235000Y-65238748D02*
X91235000Y-65761252D01*
X89765000Y-65238748D02*
X89765000Y-65761252D01*
%TO.C,D1*%
X92400000Y-65150000D02*
X99700000Y-65150000D01*
X92400000Y-60850000D02*
X99700000Y-60850000D01*
X92400000Y-60850000D02*
X92400000Y-65150000D01*
%TO.C,R7*%
X113022936Y-56735000D02*
X113477064Y-56735000D01*
X113022936Y-55265000D02*
X113477064Y-55265000D01*
D10*
%TO.C,U4*%
X81700000Y-68000000D02*
X93300000Y-68000000D01*
X93300000Y-68000000D02*
X93300000Y-76000000D01*
X93300000Y-76000000D02*
X81700000Y-76000000D01*
X81700000Y-76000000D02*
X81700000Y-68000000D01*
D12*
%TO.C,D_3V3_POW1*%
X111300000Y-91265000D02*
X108840000Y-91265000D01*
X108840000Y-91265000D02*
X108840000Y-92735000D01*
X108840000Y-92735000D02*
X111300000Y-92735000D01*
%TO.C,SWRUN1*%
X158770000Y-103730000D02*
X158770000Y-103700000D01*
X165230000Y-99200000D02*
X165230000Y-101800000D01*
X158770000Y-97300000D02*
X158770000Y-97270000D01*
X158770000Y-103730000D02*
X165230000Y-103730000D01*
X165230000Y-103730000D02*
X165230000Y-103700000D01*
X158770000Y-97270000D02*
X165230000Y-97270000D01*
X158770000Y-99200000D02*
X158770000Y-101800000D01*
X165230000Y-97270000D02*
X165230000Y-97300000D01*
%TO.C,R5*%
X110272936Y-103735000D02*
X110727064Y-103735000D01*
X110272936Y-102265000D02*
X110727064Y-102265000D01*
%TO.C,D_PD_POW1*%
X111300000Y-83265000D02*
X108840000Y-83265000D01*
X108840000Y-83265000D02*
X108840000Y-84735000D01*
X108840000Y-84735000D02*
X111300000Y-84735000D01*
%TO.C,R14*%
X99765000Y-101227064D02*
X99765000Y-100772936D01*
X101235000Y-101227064D02*
X101235000Y-100772936D01*
%TO.C,C4*%
X105265000Y-62238748D02*
X105265000Y-62761252D01*
X106735000Y-62238748D02*
X106735000Y-62761252D01*
D13*
%TO.C,R11*%
X97578000Y-59350000D02*
X100422000Y-59350000D01*
X106750000Y-59350000D02*
X104778000Y-59350000D01*
X101540000Y-61660000D02*
X102810000Y-61660000D01*
X106750000Y-59350000D02*
X106750000Y-41150000D01*
X91250000Y-59350000D02*
X93222000Y-59350000D01*
X106750000Y-41150000D02*
X91250000Y-41150000D01*
D10*
X91253000Y-49595000D02*
X106747000Y-49595000D01*
D13*
X102810000Y-61660000D02*
X102810000Y-62930000D01*
X104080000Y-61660000D02*
X102810000Y-61660000D01*
X91250000Y-41150000D02*
X91250000Y-59350000D01*
X102810000Y-61660000D02*
X102810000Y-60390000D01*
%TD*%
G36*
X141442121Y-84520002D02*
G01*
X141488614Y-84573658D01*
X141500000Y-84626000D01*
X141500000Y-94374000D01*
X141479998Y-94442121D01*
X141426342Y-94488614D01*
X141374000Y-94500000D01*
X135626000Y-94500000D01*
X135557879Y-94479998D01*
X135511386Y-94426342D01*
X135500000Y-94374000D01*
X135500000Y-84626000D01*
X135520002Y-84557879D01*
X135573658Y-84511386D01*
X135626000Y-84500000D01*
X141374000Y-84500000D01*
X141442121Y-84520002D01*
G37*
M02*
