%TF.GenerationSoftware,KiCad,Pcbnew,(6.0.4)*%
%TF.CreationDate,2022-12-15T09:53:27-05:00*%
%TF.ProjectId,HPheater,48506865-6174-4657-922e-6b696361645f,rev?*%
%TF.SameCoordinates,Original*%
%TF.FileFunction,Legend,Top*%
%TF.FilePolarity,Positive*%
%FSLAX46Y46*%
G04 Gerber Fmt 4.6, Leading zero omitted, Abs format (unit mm)*
G04 Created by KiCad (PCBNEW (6.0.4)) date 2022-12-15 09:53:27*
%MOMM*%
%LPD*%
G01*
G04 APERTURE LIST*
%ADD10C,0.150000*%
%ADD11C,0.127000*%
%ADD12C,0.200000*%
%ADD13C,0.120000*%
G04 APERTURE END LIST*
D10*
%TO.C,J1*%
X185166666Y-113452380D02*
X185166666Y-114166666D01*
X185119047Y-114309523D01*
X185023809Y-114404761D01*
X184880952Y-114452380D01*
X184785714Y-114452380D01*
X186166666Y-114452380D02*
X185595238Y-114452380D01*
X185880952Y-114452380D02*
X185880952Y-113452380D01*
X185785714Y-113595238D01*
X185690476Y-113690476D01*
X185595238Y-113738095D01*
%TO.C,H3*%
X175238095Y-21452380D02*
X175238095Y-20452380D01*
X175238095Y-20928571D02*
X175809523Y-20928571D01*
X175809523Y-21452380D02*
X175809523Y-20452380D01*
X176190476Y-20452380D02*
X176809523Y-20452380D01*
X176476190Y-20833333D01*
X176619047Y-20833333D01*
X176714285Y-20880952D01*
X176761904Y-20928571D01*
X176809523Y-21023809D01*
X176809523Y-21261904D01*
X176761904Y-21357142D01*
X176714285Y-21404761D01*
X176619047Y-21452380D01*
X176333333Y-21452380D01*
X176238095Y-21404761D01*
X176190476Y-21357142D01*
%TO.C,R1*%
X204132380Y-113916666D02*
X203656190Y-114250000D01*
X204132380Y-114488095D02*
X203132380Y-114488095D01*
X203132380Y-114107142D01*
X203180000Y-114011904D01*
X203227619Y-113964285D01*
X203322857Y-113916666D01*
X203465714Y-113916666D01*
X203560952Y-113964285D01*
X203608571Y-114011904D01*
X203656190Y-114107142D01*
X203656190Y-114488095D01*
X204132380Y-112964285D02*
X204132380Y-113535714D01*
X204132380Y-113250000D02*
X203132380Y-113250000D01*
X203275238Y-113345238D01*
X203370476Y-113440476D01*
X203418095Y-113535714D01*
%TO.C,H1*%
X254238095Y-21452380D02*
X254238095Y-20452380D01*
X254238095Y-20928571D02*
X254809523Y-20928571D01*
X254809523Y-21452380D02*
X254809523Y-20452380D01*
X255809523Y-21452380D02*
X255238095Y-21452380D01*
X255523809Y-21452380D02*
X255523809Y-20452380D01*
X255428571Y-20595238D01*
X255333333Y-20690476D01*
X255238095Y-20738095D01*
%TO.C,H2*%
X254238095Y-104452380D02*
X254238095Y-103452380D01*
X254238095Y-103928571D02*
X254809523Y-103928571D01*
X254809523Y-104452380D02*
X254809523Y-103452380D01*
X255238095Y-103547619D02*
X255285714Y-103500000D01*
X255380952Y-103452380D01*
X255619047Y-103452380D01*
X255714285Y-103500000D01*
X255761904Y-103547619D01*
X255809523Y-103642857D01*
X255809523Y-103738095D01*
X255761904Y-103880952D01*
X255190476Y-104452380D01*
X255809523Y-104452380D01*
%TO.C,H4*%
X182238095Y-104452380D02*
X182238095Y-103452380D01*
X182238095Y-103928571D02*
X182809523Y-103928571D01*
X182809523Y-104452380D02*
X182809523Y-103452380D01*
X183714285Y-103785714D02*
X183714285Y-104452380D01*
X183476190Y-103404761D02*
X183238095Y-104119047D01*
X183857142Y-104119047D01*
D11*
%TO.C,J1*%
X202747500Y-109150000D02*
X202747500Y-126350000D01*
D10*
X187250500Y-119001000D02*
X202744500Y-119001000D01*
D11*
X202747500Y-126350000D02*
X187247500Y-126350000D01*
X187247500Y-109150000D02*
X189287500Y-109150000D01*
X193507500Y-109150000D02*
X196487500Y-109150000D01*
X187247500Y-126350000D02*
X187247500Y-109150000D01*
X200707500Y-109150000D02*
X202747500Y-109150000D01*
D12*
X186797500Y-111000000D02*
G75*
G03*
X186797500Y-111000000I-100000J0D01*
G01*
D13*
%TO.C,R1*%
X206410000Y-114477064D02*
X206410000Y-113022936D01*
X204590000Y-114477064D02*
X204590000Y-113022936D01*
%TD*%
M02*
